<?xml version="1.0" encoding="UTF-8" standalone="no"?>
<svg
   xmlns:dc="http://purl.org/dc/elements/1.1/"
   xmlns:cc="http://creativecommons.org/ns#"
   xmlns:rdf="http://www.w3.org/1999/02/22-rdf-syntax-ns#"
   xmlns:svg="http://www.w3.org/2000/svg"
   xmlns="http://www.w3.org/2000/svg"
   id="svg8"
   version="1.1"
   viewBox="0 0 46.407413 47.360543"
   height="179.00049"
   width="175.39809">
  <defs
     id="defs2" />
  <metadata
     id="metadata5">
    <rdf:RDF>
      <cc:Work
         rdf:about="">
        <dc:format>image/svg+xml</dc:format>
        <dc:type
           rdf:resource="http://purl.org/dc/dcmitype/StillImage" />
        <dc:title></dc:title>
      </cc:Work>
    </rdf:RDF>
  </metadata>
  <g
     transform="translate(-108.47903,-252.81446)"
     id="layer1">
    <path
       id="path5720"
       d="m 131.67775,252.81449 c -0.0697,0.002 -0.13609,0.0296 -0.18523,0.0781 l -22.93449,22.48828 c -0.16916,0.16686 -0.0487,0.45103 0.19121,0.45117 h 5.12665 v 24.07735 c -5.7e-4,0.14617 0.11982,0.2651 0.26888,0.26562 35.34481,-0.26562 0,0 35.07592,0 0.14905,-5.1e-4 0.26946,-0.11945 0.26889,-0.26562 v -24.07735 h 5.12664 c 0.23995,-1.4e-4 0.36037,-0.28431 0.1912,-0.45117 l -6.66623,-6.53711 v -7.5625 h 1.0795 c 0.14905,-5.1e-4 0.26946,-0.11945 0.26889,-0.26562 v -2.64454 c 5.7e-4,-0.14617 -0.11984,-0.26511 -0.26889,-0.26562 h -8.09429 c -0.14984,-5.6e-4 -0.27144,0.11869 -0.27087,0.26562 v 2.64454 c -5.7e-4,0.14693 0.12103,0.26618 0.27087,0.26562 h 1.07951 v 1.74219 l -10.33297,-10.13086 c -0.0516,-0.0509 -0.12202,-0.0791 -0.19519,-0.0781 z"
       style="color:#000000;font-style:normal;font-variant:normal;font-weight:normal;font-stretch:normal;font-size:medium;line-height:normal;font-family:sans-serif;font-variant-ligatures:normal;font-variant-position:normal;font-variant-caps:normal;font-variant-numeric:normal;font-variant-alternates:normal;font-feature-settings:normal;text-indent:0;text-align:start;text-decoration:none;text-decoration-line:none;text-decoration-style:solid;text-decoration-color:#000000;letter-spacing:normal;word-spacing:normal;text-transform:none;writing-mode:lr-tb;direction:ltr;text-orientation:mixed;dominant-baseline:auto;baseline-shift:baseline;text-anchor:start;white-space:normal;shape-padding:0;clip-rule:nonzero;display:inline;overflow:visible;visibility:visible;opacity:1;isolation:auto;mix-blend-mode:normal;color-interpolation:sRGB;color-interpolation-filters:linearRGB;solid-color:#000000;solid-opacity:1;vector-effect:none;fill:#0eaaf4;fill-opacity:1;fill-rule:evenodd;stroke:none;stroke-width:0.5291667;stroke-linecap:round;stroke-linejoin:round;stroke-miterlimit:4;stroke-dasharray:none;stroke-dashoffset:0;stroke-opacity:1;color-rendering:auto;image-rendering:auto;shape-rendering:auto;text-rendering:auto;enable-background:accumulate" />
  </g>
</svg>
