<?xml version="1.0" encoding="UTF-8" standalone="no"?>
<!-- Created with Inkscape (http://www.inkscape.org/) -->

<svg
   xmlns:dc="http://purl.org/dc/elements/1.1/"
   xmlns:cc="http://creativecommons.org/ns#"
   xmlns:rdf="http://www.w3.org/1999/02/22-rdf-syntax-ns#"
   xmlns:svg="http://www.w3.org/2000/svg"
   xmlns="http://www.w3.org/2000/svg"
   xmlns:sodipodi="http://sodipodi.sourceforge.net/DTD/sodipodi-0.dtd"
   xmlns:inkscape="http://www.inkscape.org/namespaces/inkscape"
   width="166.56842mm"
   height="23.348961mm"
   viewBox="0 0 166.5684 23.348961"
   version="1.1"
   id="svg5110"
   inkscape:version="0.92.2 5c3e80d, 2017-08-06"
   sodipodi:docname="aat7.svg">
  <defs
     id="defs5104" />
  <sodipodi:namedview
     id="base"
     pagecolor="#ffffff"
     bordercolor="#666666"
     borderopacity="1.0"
     inkscape:pageopacity="0.0"
     inkscape:pageshadow="2"
     inkscape:zoom="1"
     inkscape:cx="258.80855"
     inkscape:cy="-23.873639"
     inkscape:document-units="mm"
     inkscape:current-layer="layer1"
     showgrid="false"
     fit-margin-top="0"
     fit-margin-left="0"
     fit-margin-right="0"
     fit-margin-bottom="0"
     inkscape:window-width="1280"
     inkscape:window-height="756"
     inkscape:window-x="0"
     inkscape:window-y="0"
     inkscape:window-maximized="1"
     showguides="false"
     inkscape:snap-global="false" />
  <metadata
     id="metadata5107">
    <rdf:RDF>
      <cc:Work
         rdf:about="">
        <dc:format>image/svg+xml</dc:format>
        <dc:type
           rdf:resource="http://purl.org/dc/dcmitype/StillImage" />
        <dc:title></dc:title>
      </cc:Work>
    </rdf:RDF>
  </metadata>
  <g
     inkscape:label="Layer 1"
     inkscape:groupmode="layer"
     id="layer1"
     transform="translate(-177.87869,88.490156)">
    <g
       id="g4207"
       style="fill:#0eaaf4;fill-opacity:1"
       transform="matrix(0.95935462,0,0,0.95935462,8.7830079,-3.1235165)">
      <path
         d="m 224.5172,-73.582653 h -4.95045 l -1.28817,2.808503 h -1.87982 l 5.72185,-12.290013 5.51965,12.290013 h -1.90978 z m -0.71148,-1.640167 -1.71507,-3.931905 -1.79743,3.931905 z"
         style="font-style:normal;font-variant:normal;font-weight:500;font-stretch:normal;font-size:11.28888893px;line-height:1.32291663px;font-family:Futura;-inkscape-font-specification:'Futura Medium';font-variant-ligatures:normal;font-variant-caps:normal;font-variant-numeric:normal;text-align:start;letter-spacing:0px;word-spacing:0px;writing-mode:lr-tb;text-anchor:start;fill:#0eaaf4;fill-opacity:1;stroke:none;stroke-width:0.35948849px;stroke-linecap:butt;stroke-linejoin:miter;stroke-opacity:1"
         id="path1030"
         inkscape:connector-curvature="0" />
      <path
         d="m 230.44127,-78.068771 v 4.186544 q 0,1.812422 1.43046,1.812422 1.43048,0 1.43048,-1.812422 v -4.186544 h 1.6851 v 4.223991 q 0,0.876252 -0.21719,1.512847 -0.2097,0.56919 -0.72647,1.02604 -0.85379,0.741445 -2.17192,0.741445 -1.31062,0 -2.16442,-0.741445 -0.52425,-0.45685 -0.74144,-1.02604 -0.2097,-0.509275 -0.2097,-1.512847 v -4.223991 z"
         style="font-style:normal;font-variant:normal;font-weight:500;font-stretch:normal;font-size:11.28888893px;line-height:1.32291663px;font-family:Futura;-inkscape-font-specification:'Futura Medium';font-variant-ligatures:normal;font-variant-caps:normal;font-variant-numeric:normal;text-align:start;letter-spacing:0px;word-spacing:0px;writing-mode:lr-tb;text-anchor:start;fill:#0eaaf4;fill-opacity:1;stroke:none;stroke-width:0.35948849px;stroke-linecap:butt;stroke-linejoin:miter;stroke-opacity:1"
         id="path1032"
         inkscape:connector-curvature="0" />
      <path
         d="m 242.7912,-77.754217 v 2.239312 q -0.57667,-0.703997 -1.03352,-0.966124 -0.44936,-0.269617 -1.05601,-0.269617 -0.95114,0 -1.58024,0.666552 -0.62911,0.666551 -0.62911,1.670124 0,1.02604 0.60663,1.685102 0.61413,0.659063 1.56528,0.659063 0.60664,0 1.07097,-0.262128 0.44937,-0.254638 1.056,-0.988594 v 2.224336 q -1.02604,0.531743 -2.05208,0.531743 -1.69259,0 -2.83097,-1.093444 -1.13838,-1.100933 -1.13838,-2.733611 0,-1.632676 1.15335,-2.756078 1.15337,-1.123402 2.83098,-1.123402 1.07847,0 2.0371,0.516766 z"
         style="font-style:normal;font-variant:normal;font-weight:500;font-stretch:normal;font-size:11.28888893px;line-height:1.32291663px;font-family:Futura;-inkscape-font-specification:'Futura Medium';font-variant-ligatures:normal;font-variant-caps:normal;font-variant-numeric:normal;text-align:start;letter-spacing:0px;word-spacing:0px;writing-mode:lr-tb;text-anchor:start;fill:#0eaaf4;fill-opacity:1;stroke:none;stroke-width:0.35948849px;stroke-linecap:butt;stroke-linejoin:miter;stroke-opacity:1"
         id="path1034"
         inkscape:connector-curvature="0" />
      <path
         d="m 246.1614,-76.496009 v 5.721859 h -1.68509 v -5.721859 h -0.71898 v -1.572762 h 0.71898 v -2.673695 h 1.68509 v 2.673695 h 1.31064 v 1.572762 z"
         style="font-style:normal;font-variant:normal;font-weight:500;font-stretch:normal;font-size:11.28888893px;line-height:1.32291663px;font-family:Futura;-inkscape-font-specification:'Futura Medium';font-variant-ligatures:normal;font-variant-caps:normal;font-variant-numeric:normal;text-align:start;letter-spacing:0px;word-spacing:0px;writing-mode:lr-tb;text-anchor:start;fill:#0eaaf4;fill-opacity:1;stroke:none;stroke-width:0.35948849px;stroke-linecap:butt;stroke-linejoin:miter;stroke-opacity:1"
         id="path1036"
         inkscape:connector-curvature="0" />
      <path
         d="m 250.30301,-78.068771 v 7.294621 h -1.6851 v -7.294621 z m -1.93973,-3.033184 q 0,-0.441871 0.32204,-0.763912 0.32204,-0.322043 0.7714,-0.322043 0.45685,0 0.77889,0.322043 0.32205,0.314551 0.32205,0.771402 0,0.45685 -0.32205,0.778891 -0.31456,0.322042 -0.7714,0.322042 -0.45685,0 -0.77889,-0.322042 -0.32204,-0.322041 -0.32204,-0.786381 z"
         style="font-style:normal;font-variant:normal;font-weight:500;font-stretch:normal;font-size:11.28888893px;line-height:1.32291663px;font-family:Futura;-inkscape-font-specification:'Futura Medium';font-variant-ligatures:normal;font-variant-caps:normal;font-variant-numeric:normal;text-align:start;letter-spacing:0px;word-spacing:0px;writing-mode:lr-tb;text-anchor:start;fill:#0eaaf4;fill-opacity:1;stroke:none;stroke-width:0.35948849px;stroke-linecap:butt;stroke-linejoin:miter;stroke-opacity:1"
         id="path1038"
         inkscape:connector-curvature="0" />
      <path
         d="m 252.10794,-74.473885 q 0,-1.580252 1.1309,-2.688674 1.13089,-1.108424 2.75608,-1.108424 1.63267,0 2.77105,1.115913 1.12341,1.115912 1.12341,2.7411 0,1.640165 -1.1309,2.748589 -1.13837,1.100933 -2.79352,1.100933 -1.64017,0 -2.74859,-1.123401 -1.10843,-1.108423 -1.10843,-2.786036 z m 1.72256,0.02996 q 0,1.093446 0.58416,1.73004 0.59916,0.644083 1.58026,0.644083 0.98858,0 1.58024,-0.636594 0.59166,-0.636594 0.59166,-1.700081 0,-1.063488 -0.59166,-1.700082 -0.59914,-0.644083 -1.58024,-0.644083 -0.96613,0 -1.56528,0.644083 -0.59914,0.644085 -0.59914,1.662634 z"
         style="font-style:normal;font-variant:normal;font-weight:500;font-stretch:normal;font-size:11.28888893px;line-height:1.32291663px;font-family:Futura;-inkscape-font-specification:'Futura Medium';font-variant-ligatures:normal;font-variant-caps:normal;font-variant-numeric:normal;text-align:start;letter-spacing:0px;word-spacing:0px;writing-mode:lr-tb;text-anchor:start;fill:#0eaaf4;fill-opacity:1;stroke:none;stroke-width:0.35948849px;stroke-linecap:butt;stroke-linejoin:miter;stroke-opacity:1"
         id="path1040"
         inkscape:connector-curvature="0" />
      <path
         d="m 261.67932,-78.068771 h 1.6926 v 0.674042 q 0.88374,-0.876254 1.99216,-0.876254 1.2732,0 1.98468,0.801361 0.61413,0.681529 0.61413,2.224334 v 4.471138 h -1.6926 v -4.074202 q 0,-1.078466 -0.29956,-1.490379 -0.2921,-0.419404 -1.0635,-0.419404 -0.8388,0 -1.1908,0.554211 -0.34451,0.546723 -0.34451,1.909783 v 3.519991 h -1.6926 z"
         style="font-style:normal;font-variant:normal;font-weight:500;font-stretch:normal;font-size:11.28888893px;line-height:1.32291663px;font-family:Futura;-inkscape-font-specification:'Futura Medium';font-variant-ligatures:normal;font-variant-caps:normal;font-variant-numeric:normal;text-align:start;letter-spacing:0px;word-spacing:0px;writing-mode:lr-tb;text-anchor:start;fill:#0eaaf4;fill-opacity:1;stroke:none;stroke-width:0.35948849px;stroke-linecap:butt;stroke-linejoin:miter;stroke-opacity:1"
         id="path1042"
         inkscape:connector-curvature="0" />
    </g>
    <g
       id="g4198"
       style="fill:#057bbe;fill-opacity:1"
       transform="matrix(0.95935462,0,0,0.95935462,5.1863824,-3.1235165)">
      <path
         d="m 281.94549,-73.582653 h -4.95045 l -1.28817,2.808503 h -1.87982 l 5.72185,-12.290013 5.51965,12.290013 h -1.90978 z m -0.71149,-1.640167 -1.71506,-3.931905 -1.79743,3.931905 z"
         style="font-style:normal;font-variant:normal;font-weight:500;font-stretch:normal;font-size:11.28888893px;line-height:1.32291663px;font-family:Futura;-inkscape-font-specification:'Futura Medium';font-variant-ligatures:normal;font-variant-caps:normal;font-variant-numeric:normal;text-align:start;letter-spacing:0px;word-spacing:0px;writing-mode:lr-tb;text-anchor:start;fill:#057bbe;fill-opacity:1;stroke:none;stroke-width:0.35948849px;stroke-linecap:butt;stroke-linejoin:miter;stroke-opacity:1"
         id="path1044"
         inkscape:connector-curvature="0" />
      <path
         d="m 287.86956,-83.423651 v 12.649501 h -1.6851 v -12.649501 z"
         style="font-style:normal;font-variant:normal;font-weight:500;font-stretch:normal;font-size:11.28888893px;line-height:1.32291663px;font-family:Futura;-inkscape-font-specification:'Futura Medium';font-variant-ligatures:normal;font-variant-caps:normal;font-variant-numeric:normal;text-align:start;letter-spacing:0px;word-spacing:0px;writing-mode:lr-tb;text-anchor:start;fill:#057bbe;fill-opacity:1;stroke:none;stroke-width:0.35948849px;stroke-linecap:butt;stroke-linejoin:miter;stroke-opacity:1"
         id="path1046"
         inkscape:connector-curvature="0" />
      <path
         d="m 291.75653,-76.496009 v 5.721859 h -1.68511 v -5.721859 h -0.71898 v -1.572762 h 0.71898 v -2.673695 h 1.68511 v 2.673695 h 1.31063 v 1.572762 z"
         style="font-style:normal;font-variant:normal;font-weight:500;font-stretch:normal;font-size:11.28888893px;line-height:1.32291663px;font-family:Futura;-inkscape-font-specification:'Futura Medium';font-variant-ligatures:normal;font-variant-caps:normal;font-variant-numeric:normal;text-align:start;letter-spacing:0px;word-spacing:0px;writing-mode:lr-tb;text-anchor:start;fill:#057bbe;fill-opacity:1;stroke:none;stroke-width:0.35948849px;stroke-linecap:butt;stroke-linejoin:miter;stroke-opacity:1"
         id="path1048"
         inkscape:connector-curvature="0" />
      <path
         d="m 301.00588,-74.024524 h -5.22756 q 0.0674,0.89872 0.58416,1.430464 0.51676,0.524255 1.32561,0.524255 0.62911,0 1.04102,-0.299574 0.40443,-0.299575 0.92119,-1.108423 l 1.42298,0.79387 q -0.32954,0.561701 -0.69651,0.966125 -0.36698,0.396936 -0.78638,0.659062 -0.41941,0.254639 -0.90621,0.374468 -0.48681,0.119823 -1.056,0.119823 -1.63268,0 -2.62128,-1.048507 -0.98858,-1.055998 -0.98858,-2.801015 0,-1.730038 0.95862,-2.801014 0.96613,-1.055998 2.56136,-1.055998 1.61021,0 2.54638,1.02604 0.92868,1.018551 0.92868,2.823483 z m -1.73005,-1.378039 q -0.35199,-1.348083 -1.70008,-1.348083 -0.30706,0 -0.57667,0.09736 -0.26962,0.08988 -0.49431,0.269617 -0.21719,0.172254 -0.37446,0.419403 -0.15728,0.247148 -0.23966,0.561701 z"
         style="font-style:normal;font-variant:normal;font-weight:500;font-stretch:normal;font-size:11.28888893px;line-height:1.32291663px;font-family:Futura;-inkscape-font-specification:'Futura Medium';font-variant-ligatures:normal;font-variant-caps:normal;font-variant-numeric:normal;text-align:start;letter-spacing:0px;word-spacing:0px;writing-mode:lr-tb;text-anchor:start;fill:#057bbe;fill-opacity:1;stroke:none;stroke-width:0.35948849px;stroke-linecap:butt;stroke-linejoin:miter;stroke-opacity:1"
         id="path1050"
         inkscape:connector-curvature="0" />
      <path
         d="m 302.84075,-78.068771 h 1.68511 v 0.651574 q 0.46434,-0.486807 0.82382,-0.666552 0.36699,-0.187234 0.86877,-0.187234 0.66655,0 1.39301,0.434382 l -0.7714,1.542806 q -0.47932,-0.34451 -0.93616,-0.34451 -1.37804,0 -1.37804,2.082037 v 3.782118 h -1.68511 z"
         style="font-style:normal;font-variant:normal;font-weight:500;font-stretch:normal;font-size:11.28888893px;line-height:1.32291663px;font-family:Futura;-inkscape-font-specification:'Futura Medium';font-variant-ligatures:normal;font-variant-caps:normal;font-variant-numeric:normal;text-align:start;letter-spacing:0px;word-spacing:0px;writing-mode:lr-tb;text-anchor:start;fill:#057bbe;fill-opacity:1;stroke:none;stroke-width:0.35948849px;stroke-linecap:butt;stroke-linejoin:miter;stroke-opacity:1"
         id="path1052"
         inkscape:connector-curvature="0" />
      <path
         d="m 308.83223,-78.068771 h 1.69259 v 0.674042 q 0.88374,-0.876254 1.99216,-0.876254 1.2732,0 1.98468,0.801361 0.61413,0.681529 0.61413,2.224334 v 4.471138 h -1.6926 v -4.074202 q 0,-1.078466 -0.29956,-1.490379 -0.29209,-0.419404 -1.06349,-0.419404 -0.83881,0 -1.19081,0.554211 -0.34451,0.546723 -0.34451,1.909783 v 3.519991 h -1.69259 z"
         style="font-style:normal;font-variant:normal;font-weight:500;font-stretch:normal;font-size:11.28888893px;line-height:1.32291663px;font-family:Futura;-inkscape-font-specification:'Futura Medium';font-variant-ligatures:normal;font-variant-caps:normal;font-variant-numeric:normal;text-align:start;letter-spacing:0px;word-spacing:0px;writing-mode:lr-tb;text-anchor:start;fill:#057bbe;fill-opacity:1;stroke:none;stroke-width:0.35948849px;stroke-linecap:butt;stroke-linejoin:miter;stroke-opacity:1"
         id="path1054"
         inkscape:connector-curvature="0" />
      <path
         d="m 322.6276,-78.068771 h 1.6926 v 7.294621 h -1.6926 v -0.763912 q -1.04102,0.973614 -2.2393,0.973614 -1.51286,0 -2.50145,-1.093444 -0.9811,-1.115913 -0.9811,-2.786036 0,-1.640166 0.9811,-2.73361 0.9811,-1.093445 2.45651,-1.093445 1.27318,0 2.28424,1.048509 z m -3.99931,3.624843 q 0,1.048509 0.5617,1.70757 0.57669,0.666553 1.45294,0.666553 0.93617,0 1.51285,-0.644084 0.57667,-0.666552 0.57667,-1.692592 0,-1.02604 -0.57667,-1.692591 -0.57668,-0.651574 -1.49786,-0.651574 -0.86877,0 -1.45294,0.659063 -0.57669,0.666551 -0.57669,1.647655 z"
         style="font-style:normal;font-variant:normal;font-weight:500;font-stretch:normal;font-size:11.28888893px;line-height:1.32291663px;font-family:Futura;-inkscape-font-specification:'Futura Medium';font-variant-ligatures:normal;font-variant-caps:normal;font-variant-numeric:normal;text-align:start;letter-spacing:0px;word-spacing:0px;writing-mode:lr-tb;text-anchor:start;fill:#057bbe;fill-opacity:1;stroke:none;stroke-width:0.35948849px;stroke-linecap:butt;stroke-linejoin:miter;stroke-opacity:1"
         id="path1056"
         inkscape:connector-curvature="0" />
      <path
         d="m 328.1847,-76.496009 v 5.721859 h -1.68511 v -5.721859 h -0.71897 v -1.572762 h 0.71897 v -2.673695 h 1.68511 v 2.673695 h 1.31063 v 1.572762 z"
         style="font-style:normal;font-variant:normal;font-weight:500;font-stretch:normal;font-size:11.28888893px;line-height:1.32291663px;font-family:Futura;-inkscape-font-specification:'Futura Medium';font-variant-ligatures:normal;font-variant-caps:normal;font-variant-numeric:normal;text-align:start;letter-spacing:0px;word-spacing:0px;writing-mode:lr-tb;text-anchor:start;fill:#057bbe;fill-opacity:1;stroke:none;stroke-width:0.35948849px;stroke-linecap:butt;stroke-linejoin:miter;stroke-opacity:1"
         id="path1058"
         inkscape:connector-curvature="0" />
      <path
         d="m 332.32631,-78.068771 v 7.294621 h -1.6851 v -7.294621 z m -1.93975,-3.033184 q 0,-0.441871 0.32204,-0.763912 0.32205,-0.322043 0.77142,-0.322043 0.45684,0 0.77888,0.322043 0.32204,0.314551 0.32204,0.771402 0,0.45685 -0.32204,0.778891 -0.31455,0.322042 -0.7714,0.322042 -0.45685,0 -0.7789,-0.322042 -0.32204,-0.322041 -0.32204,-0.786381 z"
         style="font-style:normal;font-variant:normal;font-weight:500;font-stretch:normal;font-size:11.28888893px;line-height:1.32291663px;font-family:Futura;-inkscape-font-specification:'Futura Medium';font-variant-ligatures:normal;font-variant-caps:normal;font-variant-numeric:normal;text-align:start;letter-spacing:0px;word-spacing:0px;writing-mode:lr-tb;text-anchor:start;fill:#057bbe;fill-opacity:1;stroke:none;stroke-width:0.35948849px;stroke-linecap:butt;stroke-linejoin:miter;stroke-opacity:1"
         id="path1060"
         inkscape:connector-curvature="0" />
      <path
         d="m 335.38196,-78.068771 1.88731,4.096672 1.87983,-4.096672 h 1.8948 l -3.78961,7.796407 -3.75965,-7.796407 z"
         style="font-style:normal;font-variant:normal;font-weight:500;font-stretch:normal;font-size:11.28888893px;line-height:1.32291663px;font-family:Futura;-inkscape-font-specification:'Futura Medium';font-variant-ligatures:normal;font-variant-caps:normal;font-variant-numeric:normal;text-align:start;letter-spacing:0px;word-spacing:0px;writing-mode:lr-tb;text-anchor:start;fill:#057bbe;fill-opacity:1;stroke:none;stroke-width:0.35948849px;stroke-linecap:butt;stroke-linejoin:miter;stroke-opacity:1"
         id="path1062"
         inkscape:connector-curvature="0" />
      <path
         d="m 348.54822,-74.024524 h -5.22756 q 0.0674,0.89872 0.58418,1.430464 0.51675,0.524255 1.32561,0.524255 0.6291,0 1.04102,-0.299574 0.40441,-0.299575 0.92118,-1.108423 l 1.42298,0.79387 q -0.32954,0.561701 -0.69651,0.966125 -0.36699,0.396936 -0.78639,0.659062 -0.4194,0.254639 -0.90621,0.374468 -0.48681,0.119823 -1.05599,0.119823 -1.63268,0 -2.62127,-1.048507 -0.9886,-1.055998 -0.9886,-2.801015 0,-1.730038 0.95864,-2.801014 0.96612,-1.055998 2.56135,-1.055998 1.61022,0 2.54639,1.02604 0.92867,1.018551 0.92867,2.823483 z m -1.73004,-1.378039 q -0.352,-1.348083 -1.70008,-1.348083 -0.30705,0 -0.57667,0.09736 -0.26962,0.08988 -0.4943,0.269617 -0.2172,0.172254 -0.37447,0.419403 -0.15728,0.247148 -0.23966,0.561701 z"
         style="font-style:normal;font-variant:normal;font-weight:500;font-stretch:normal;font-size:11.28888893px;line-height:1.32291663px;font-family:Futura;-inkscape-font-specification:'Futura Medium';font-variant-ligatures:normal;font-variant-caps:normal;font-variant-numeric:normal;text-align:start;letter-spacing:0px;word-spacing:0px;writing-mode:lr-tb;text-anchor:start;fill:#057bbe;fill-opacity:1;stroke:none;stroke-width:0.35948849px;stroke-linecap:butt;stroke-linejoin:miter;stroke-opacity:1"
         id="path1064"
         inkscape:connector-curvature="0" />
    </g>
    <path
       style="opacity:1;fill:#f8feff;fill-opacity:0.997853;stroke:none;stroke-width:0.19216652;stroke-linejoin:round;stroke-miterlimit:4;stroke-dasharray:none;stroke-opacity:1"
       d="m 199.87536,-76.815675 v 3.604248 l 3.12189,-1.802121 3.12098,-1.802127 z m 10.08024,0 -10.11074,5.837627 -6.27334,3.621283 v 2.215448 l 10.11071,-5.836731 10.10983,-5.837627 z"
       id="path5887"
       inkscape:connector-curvature="0" />
    <g
       id="g2187"
       style="fill:#0eaaf4;fill-opacity:1">
      <g
         transform="matrix(0.91978379,0,0,0.91978379,16.148796,-5.1933085)"
         style="fill:#0eaaf4;fill-opacity:1;stroke-width:1.03979802"
         id="g1411">
        <rect
           style="opacity:1;fill:#0eaaf4;fill-opacity:1;stroke:none;stroke-width:0.26127797;stroke-linejoin:round;stroke-miterlimit:4;stroke-dasharray:none;stroke-opacity:1"
           id="rect4869"
           width="4.6246614"
           height="3.9418731"
           x="-80.18087"
           y="-197.28653"
           transform="rotate(90)" />
        <rect
           y="-197.73505"
           x="81.015221"
           height="4.8388953"
           width="2.4088788"
           id="rect4871"
           style="opacity:1;fill:#0eaaf4;fill-opacity:1;stroke:none;stroke-width:0.20892577;stroke-linejoin:round;stroke-miterlimit:4;stroke-dasharray:none;stroke-opacity:1"
           transform="matrix(0,-1,-1,0,0,0)" />
        <rect
           transform="matrix(0,-1,-1,0,0,0)"
           style="opacity:1;fill:#0eaaf4;fill-opacity:1;stroke:none;stroke-width:0.20892577;stroke-linejoin:round;stroke-miterlimit:4;stroke-dasharray:none;stroke-opacity:1"
           id="rect4873"
           width="2.4088788"
           height="4.8388953"
           x="72.312973"
           y="-197.73505" />
      </g>
      <rect
         transform="rotate(90)"
         y="-193.45856"
         x="-77.923347"
         height="15.579873"
         width="2.2156477"
         id="rect4867"
         style="opacity:1;fill:#0eaaf4;fill-opacity:1;stroke:none;stroke-width:0.50567687;stroke-linejoin:round;stroke-miterlimit:4;stroke-dasharray:none;stroke-opacity:1" />
    </g>
    <path
       inkscape:connector-curvature="0"
       id="path961"
       d="m 213.79276,-76.815675 -10.11021,-5.837333 -10.11042,-5.837148 v 2.215393 l 6.27325,3.621755 10.11022,5.837333 -10.11022,5.837145 -6.27325,3.621937 v 2.215398 l 10.11042,-5.837335 z"
       style="opacity:1;fill:#0eaaf4;fill-opacity:1;stroke:none;stroke-width:0.43651506;stroke-linejoin:round;stroke-miterlimit:4;stroke-dasharray:none;stroke-opacity:1" />
    <path
       sodipodi:type="star"
       style="opacity:1;fill:#0eaaf4;fill-opacity:1;stroke:none;stroke-width:0.32225069;stroke-linejoin:round;stroke-miterlimit:4;stroke-dasharray:none;stroke-opacity:1"
       id="path963"
       sodipodi:sides="3"
       sodipodi:cx="135.69395"
       sodipodi:cy="67.503311"
       sodipodi:r1="11.478301"
       sodipodi:r2="5.7391505"
       sodipodi:arg1="0.52359878"
       sodipodi:arg2="1.5707963"
       inkscape:flatsided="false"
       inkscape:rounded="0"
       inkscape:randomized="0"
       d="m 145.63445,73.242462 -9.9405,0 -9.9405,0 4.97025,-8.608726 4.97025,-8.608726 4.97025,8.608726 z"
       inkscape:transform-center-y="-3.1011273"
       transform="matrix(0,0.36256709,-0.36256709,0,226.43067,-126.01369)" />
    <path
       inkscape:connector-curvature="0"
       id="path977"
       d="m 199.87536,-76.815675 v 3.604248 l 3.12189,-1.802121 3.12098,-1.802127 z m 10.08024,0 -10.11074,5.837627 -6.27334,3.621283 v 2.215448 l 10.11071,-5.836731 10.10983,-5.837627 z"
       style="opacity:1;fill:#057bbe;fill-opacity:1;stroke:none;stroke-width:0.19216652;stroke-linejoin:round;stroke-miterlimit:4;stroke-dasharray:none;stroke-opacity:1" />
    <text
       xml:space="preserve"
       style="font-style:normal;font-variant:normal;font-weight:normal;font-stretch:normal;font-size:22.57777786px;line-height:1.32291663px;font-family:Futura;-inkscape-font-specification:Futura;font-variant-ligatures:normal;font-variant-caps:normal;font-variant-numeric:normal;text-align:start;letter-spacing:0px;word-spacing:0px;writing-mode:lr-tb;text-anchor:start;fill:#000000;fill-opacity:1;stroke:none;stroke-width:0.26458332px;stroke-linecap:butt;stroke-linejoin:miter;stroke-opacity:1"
       x="213.86322"
       y="-136.46875"
       id="text1127"><tspan
         sodipodi:role="line"
         id="tspan1125"
         x="213.86322"
         y="-129.9265"
         style="stroke-width:0.26458332px" /></text>
    <g
       aria-label="®"
       style="font-style:normal;font-variant:normal;font-weight:normal;font-stretch:normal;font-size:22.57777786px;line-height:1.32291663px;font-family:Futura;-inkscape-font-specification:Futura;font-variant-ligatures:normal;font-variant-caps:normal;font-variant-numeric:normal;text-align:start;letter-spacing:0px;word-spacing:0px;writing-mode:lr-tb;text-anchor:start;fill:#2d3e4f;fill-opacity:1;stroke:none;stroke-width:0.28534696px;stroke-linecap:butt;stroke-linejoin:miter;stroke-opacity:1"
       id="text4265"
       transform="matrix(0.19756086,0,0,0.19756086,292.50358,-50.444243)">
      <path
         d="m 254.96469,-109.73214 3.31832,4.2664 h -2.38125 l -3.03169,-4.04592 v 4.04592 h -1.9513 v -10.2085 h 2.0395 q 2.13871,0 3.11987,0.76067 1.09141,0.88195 1.09141,2.30408 0,0.95912 -0.58429,1.77492 -0.58429,0.79375 -1.48828,1.05833 z m -2.10564,-1.41111 h 0.33073 q 2.09461,0 2.09461,-1.44419 0,-1.34496 -2.02847,-1.34496 h -0.39687 z m 10.06519,0.55121 q 0,3.69314 -2.57969,6.28385 -2.57969,2.59072 -6.23976,2.59072 -3.66007,0 -6.2618,-2.60174 -2.57969,-2.59071 -2.57969,-6.29488 0,-2.05052 0.83785,-3.73724 0.84887,-1.79696 2.3592,-3.04271 2.46944,-2.03949 5.54522,-2.03949 2.0395,0 3.69315,0.7717 2.34817,1.02526 3.78133,3.25217 1.44419,2.23793 1.44419,4.81762 z m -8.88559,-7.55165 q -3.02066,0 -5.18143,2.22691 -2.17178,2.23793 -2.17178,5.31372 0,3.14192 2.17178,5.37986 2.16077,2.22691 5.24757,2.22691 3.05374,0 5.22552,-2.21589 2.16077,-2.22691 2.16077,-5.37986 0,-1.68672 -0.84887,-3.48368 -0.83785,-1.68672 -2.22691,-2.67891 -1.95131,-1.38906 -4.37665,-1.38906 z"
         style="fill:#2d3e4f;fill-opacity:1;stroke-width:0.28534696px"
         id="path4267"
         inkscape:connector-curvature="0" />
    </g>
  </g>
</svg>
