<?xml version="1.0" encoding="UTF-8" standalone="no"?>
<!-- Created with Inkscape (http://www.inkscape.org/) -->

<svg
   xmlns:dc="http://purl.org/dc/elements/1.1/"
   xmlns:cc="http://creativecommons.org/ns#"
   xmlns:rdf="http://www.w3.org/1999/02/22-rdf-syntax-ns#"
   xmlns:svg="http://www.w3.org/2000/svg"
   xmlns="http://www.w3.org/2000/svg"
   xmlns:xlink="http://www.w3.org/1999/xlink"
   xmlns:sodipodi="http://sodipodi.sourceforge.net/DTD/sodipodi-0.dtd"
   xmlns:inkscape="http://www.inkscape.org/namespaces/inkscape"
   width="792.8338"
   height="521.49036"
   viewBox="0 0 209.77062 137.97766"
   version="1.1"
   id="svg8"
   inkscape:version="0.92.2 5c3e80d, 2017-08-06"
   sodipodi:docname="appraisals-hero.svg">
  <defs
     id="defs2">
    <linearGradient
       inkscape:collect="always"
       id="linearGradient2907">
      <stop
         style="stop-color:#aaeeff;stop-opacity:0.71014494"
         offset="0"
         id="stop2903" />
      <stop
         style="stop-color:#55ddff;stop-opacity:0.56038648"
         offset="1"
         id="stop2905" />
    </linearGradient>
    <linearGradient
       inkscape:collect="always"
       id="linearGradient2008">
      <stop
         style="stop-color:#aaeeff;stop-opacity:0.89855075"
         offset="0"
         id="stop2004" />
      <stop
         style="stop-color:#f87b54;stop-opacity:1"
         offset="1"
         id="stop2006" />
    </linearGradient>
    <linearGradient
       inkscape:collect="always"
       id="linearGradient1715">
      <stop
         style="stop-color:#aaeeff;stop-opacity:0.93236715"
         offset="0"
         id="stop1711" />
      <stop
         style="stop-color:#ff835c;stop-opacity:1"
         offset="1"
         id="stop1713" />
    </linearGradient>
    <linearGradient
       inkscape:collect="always"
       id="linearGradient1630">
      <stop
         style="stop-color:#f6511d;stop-opacity:1;"
         offset="0"
         id="stop1626" />
      <stop
         style="stop-color:#f6511d;stop-opacity:1"
         offset="1"
         id="stop1628" />
    </linearGradient>
    <linearGradient
       inkscape:collect="always"
       id="linearGradient1554">
      <stop
         style="stop-color:#b7c8c4;stop-opacity:1;"
         offset="0"
         id="stop1550" />
      <stop
         style="stop-color:#818181;stop-opacity:1"
         offset="1"
         id="stop1552" />
    </linearGradient>
    <linearGradient
       inkscape:collect="always"
       id="linearGradient1472">
      <stop
         style="stop-color:#d33806;stop-opacity:1"
         offset="0"
         id="stop1468" />
      <stop
         style="stop-color:#f6511d;stop-opacity:1"
         offset="1"
         id="stop1470" />
    </linearGradient>
    <linearGradient
       inkscape:collect="always"
       id="linearGradient1464">
      <stop
         style="stop-color:#f6511d;stop-opacity:1"
         offset="0"
         id="stop1460" />
      <stop
         style="stop-color:#d33806;stop-opacity:1"
         offset="1"
         id="stop1462" />
    </linearGradient>
    <linearGradient
       inkscape:collect="always"
       xlink:href="#linearGradient1472"
       id="linearGradient1492"
       gradientUnits="userSpaceOnUse"
       x1="906.66797"
       y1="585.51367"
       x2="1004.8613"
       y2="585.51367" />
    <linearGradient
       inkscape:collect="always"
       xlink:href="#linearGradient1464"
       id="linearGradient1494"
       gradientUnits="userSpaceOnUse"
       x1="903.39453"
       y1="614.47559"
       x2="1008.1348"
       y2="614.47559" />
    <linearGradient
       inkscape:collect="always"
       xlink:href="#linearGradient1554"
       id="linearGradient1556"
       x1="209.81754"
       y1="99.555161"
       x2="216.9198"
       y2="95.54612"
       gradientUnits="userSpaceOnUse"
       gradientTransform="translate(-103.15243,56.090428)" />
    <linearGradient
       inkscape:collect="always"
       xlink:href="#linearGradient1630"
       id="linearGradient1632"
       x1="194.35059"
       y1="176.18011"
       x2="193.83186"
       y2="194.88899"
       gradientUnits="userSpaceOnUse" />
    <linearGradient
       inkscape:collect="always"
       xlink:href="#linearGradient1630"
       id="linearGradient1668"
       gradientUnits="userSpaceOnUse"
       x1="194.35059"
       y1="176.18011"
       x2="193.83186"
       y2="194.88899" />
    <linearGradient
       inkscape:collect="always"
       xlink:href="#linearGradient1715"
       id="linearGradient1717"
       x1="39.83717"
       y1="237.00002"
       x2="122.97561"
       y2="237.00002"
       gradientUnits="userSpaceOnUse" />
    <linearGradient
       inkscape:collect="always"
       xlink:href="#linearGradient2008"
       id="linearGradient2010"
       x1="180.99931"
       y1="140.00002"
       x2="210.44417"
       y2="140.00002"
       gradientUnits="userSpaceOnUse" />
    <linearGradient
       inkscape:collect="always"
       xlink:href="#linearGradient2907"
       id="linearGradient2909"
       x1="239.88904"
       y1="243"
       x2="265.86981"
       y2="243"
       gradientUnits="userSpaceOnUse" />
  </defs>
  <sodipodi:namedview
     id="base"
     pagecolor="#ffffff"
     bordercolor="#666666"
     borderopacity="1.0"
     inkscape:pageopacity="0.0"
     inkscape:pageshadow="2"
     inkscape:zoom="0.12374369"
     inkscape:cx="498.79017"
     inkscape:cy="193.77644"
     inkscape:document-units="mm"
     inkscape:current-layer="layer1"
     showgrid="true"
     units="px"
     inkscape:window-width="1280"
     inkscape:window-height="756"
     inkscape:window-x="0"
     inkscape:window-y="0"
     inkscape:window-maximized="1"
     inkscape:snap-smooth-nodes="true"
     inkscape:measure-start="0,0"
     inkscape:measure-end="0,0"
     inkscape:snap-global="true"
     fit-margin-top="0"
     fit-margin-left="0"
     fit-margin-right="0"
     fit-margin-bottom="0">
    <inkscape:grid
       type="axonomgrid"
       id="grid815"
       units="mm"
       empspacing="10"
       visible="true"
       enabled="true"
       originx="-32.716519"
       originy="-28.388892" />
  </sodipodi:namedview>
  <metadata
     id="metadata5">
    <rdf:RDF>
      <cc:Work
         rdf:about="">
        <dc:format>image/svg+xml</dc:format>
        <dc:type
           rdf:resource="http://purl.org/dc/dcmitype/StillImage" />
        <dc:title></dc:title>
      </cc:Work>
    </rdf:RDF>
  </metadata>
  <g
     inkscape:label="Layer 1"
     inkscape:groupmode="layer"
     id="layer1"
     transform="translate(-32.716515,-130.63346)">
    <g
       id="g2096"
       transform="translate(6.9282009,29)">
      <path
         sodipodi:nodetypes="ccccc"
         inkscape:connector-curvature="0"
         id="path1733"
         d="m 173.20508,142.00001 36.37306,21 25.98077,-15 -36.37307,-21 z"
         style="fill:#f66335;fill-opacity:1;fill-rule:evenodd;stroke:none;stroke-width:0.26458332px;stroke-linecap:butt;stroke-linejoin:miter;stroke-opacity:1" />
      <path
         sodipodi:nodetypes="ccccc"
         inkscape:connector-curvature="0"
         id="path1735"
         d="m 173.20508,142.00001 v 5 l 36.37307,21 v -5 z"
         style="fill:#f6511d;fill-opacity:1;fill-rule:evenodd;stroke:none;stroke-width:0.26458332px;stroke-linecap:butt;stroke-linejoin:miter;stroke-opacity:1" />
      <path
         inkscape:connector-curvature="0"
         id="path1737"
         d="m 209.57815,163.00001 v 5 l 25.98077,-15 v -5 z"
         style="fill:#d33806;fill-opacity:1;fill-rule:evenodd;stroke:none;stroke-width:0.26458332px;stroke-linecap:butt;stroke-linejoin:miter;stroke-opacity:1" />
      <path
         sodipodi:nodetypes="ccccc"
         inkscape:connector-curvature="0"
         id="path1739"
         d="m 199.18584,129.00001 -8.66025,5 2.59807,1.5 8.66026,-5 z"
         style="fill:#d33806;fill-opacity:1;fill-rule:evenodd;stroke:none;stroke-width:0.26458332px;stroke-linecap:butt;stroke-linejoin:miter;stroke-opacity:1" />
      <path
         inkscape:connector-curvature="0"
         id="path1741"
         d="m 203.51597,131.50001 -22.51666,13 6.9282,4 22.51666,-13 z"
         style="fill:url(#linearGradient2010);fill-opacity:1;fill-rule:evenodd;stroke:none;stroke-width:0.26458332px;stroke-linecap:butt;stroke-linejoin:miter;stroke-opacity:1" />
      <path
         inkscape:connector-curvature="0"
         id="path1743"
         d="m 203.51597,131.50001 v 1 l -21.65064,12.5 -0.86602,-0.5 z"
         style="fill:#d33806;fill-opacity:1;fill-rule:evenodd;stroke:none;stroke-width:0.26458332px;stroke-linecap:butt;stroke-linejoin:miter;stroke-opacity:1" />
      <path
         inkscape:connector-curvature="0"
         id="path1745"
         d="m 203.51597,132.50001 6.06218,3.5 0.86602,-0.5 -6.9282,-4 z"
         style="fill:#d33806;fill-opacity:1;fill-rule:evenodd;stroke:none;stroke-width:0.26458332px;stroke-linecap:butt;stroke-linejoin:miter;stroke-opacity:1" />
      <g
         transform="translate(0.86602933,-0.50000033)"
         id="g1854">
        <path
           inkscape:connector-curvature="0"
           id="path1753"
           d="m 212.17622,137.50001 -4.33013,3.02917 3.46411,2 4.33012,-3.02917 z"
           style="fill:#d33806;fill-opacity:1;fill-rule:evenodd;stroke:none;stroke-width:0.26458332px;stroke-linecap:butt;stroke-linejoin:miter;stroke-opacity:1"
           sodipodi:nodetypes="ccccc" />
        <path
           style="fill:#f87b54;fill-opacity:1;fill-rule:evenodd;stroke:none;stroke-width:0.26458332px;stroke-linecap:butt;stroke-linejoin:miter;stroke-opacity:1"
           d="m 212.17622,137.50001 -4.33013,2.5 3.46411,2 4.33012,-2.5 z"
           id="path1747"
           inkscape:connector-curvature="0"
           sodipodi:nodetypes="ccccc" />
        <path
           style="fill:#d33806;fill-opacity:1;fill-rule:evenodd;stroke:none;stroke-width:0.26458332px;stroke-linecap:butt;stroke-linejoin:miter;stroke-opacity:1"
           d="m 207.84609,140.00001 v 0.52917 l 3.46411,2 v -0.52917 z"
           id="path1755"
           inkscape:connector-curvature="0" />
        <path
           style="fill:#d33806;fill-opacity:1;fill-rule:evenodd;stroke:none;stroke-width:0.26458332px;stroke-linecap:butt;stroke-linejoin:miter;stroke-opacity:1"
           d="m 215.64033,139.50001 v 0.52917 l -4.33013,2.5 v -0.52917 z"
           id="path1757"
           inkscape:connector-curvature="0"
           sodipodi:nodetypes="ccccc" />
      </g>
      <path
         sodipodi:nodetypes="ccccc"
         inkscape:connector-curvature="0"
         id="path1751"
         d="m 223.43455,143.00001 -4.33014,2.5 6.92821,4 4.33013,-2.5 z"
         style="fill:#dc491a;fill-opacity:1;fill-rule:evenodd;stroke:none;stroke-width:0.26458332px;stroke-linecap:butt;stroke-linejoin:miter;stroke-opacity:1" />
      <path
         sodipodi:nodetypes="ccccc"
         inkscape:connector-curvature="0"
         id="path1777"
         d="m 223.43455,143.00001 -4.33014,2.5 8.66027,5 4.33013,-2.5 z"
         style="fill:#f87b54;fill-opacity:1;fill-rule:evenodd;stroke:none;stroke-width:0.26458332px;stroke-linecap:butt;stroke-linejoin:miter;stroke-opacity:1" />
      <path
         sodipodi:nodetypes="ccccc"
         inkscape:connector-curvature="0"
         id="path1779"
         d="m 219.10441,145.50001 v 0.52917 l 8.66027,5 v -0.52917 z"
         style="fill:#d33806;fill-opacity:1;fill-rule:evenodd;stroke:none;stroke-width:0.26458332px;stroke-linecap:butt;stroke-linejoin:miter;stroke-opacity:1" />
      <path
         sodipodi:nodetypes="ccccc"
         inkscape:connector-curvature="0"
         id="path1781"
         d="m 232.09481,148.00001 v 0.52917 l -4.33013,2.5 v -0.52917 z"
         style="fill:#d33806;fill-opacity:1;fill-rule:evenodd;stroke:none;stroke-width:0.26458332px;stroke-linecap:butt;stroke-linejoin:miter;stroke-opacity:1" />
      <g
         id="g1864"
         transform="translate(6.0621818,2.4999997)">
        <path
           sodipodi:nodetypes="ccccc"
           style="fill:#d33806;fill-opacity:1;fill-rule:evenodd;stroke:none;stroke-width:0.26458332px;stroke-linecap:butt;stroke-linejoin:miter;stroke-opacity:1"
           d="m 212.17622,137.50001 -4.33013,3.02917 3.46411,2 4.33012,-3.02917 z"
           id="path1856"
           inkscape:connector-curvature="0" />
        <path
           sodipodi:nodetypes="ccccc"
           inkscape:connector-curvature="0"
           id="path1858"
           d="m 212.17622,137.50001 -4.33013,2.5 3.46411,2 4.33012,-2.5 z"
           style="fill:#f87b54;fill-opacity:1;fill-rule:evenodd;stroke:none;stroke-width:0.26458332px;stroke-linecap:butt;stroke-linejoin:miter;stroke-opacity:1" />
        <path
           inkscape:connector-curvature="0"
           id="path1860"
           d="m 207.84609,140.00001 v 0.52917 l 3.46411,2 v -0.52917 z"
           style="fill:#d33806;fill-opacity:1;fill-rule:evenodd;stroke:none;stroke-width:0.26458332px;stroke-linecap:butt;stroke-linejoin:miter;stroke-opacity:1" />
        <path
           sodipodi:nodetypes="ccccc"
           inkscape:connector-curvature="0"
           id="path1862"
           d="m 215.64033,139.50001 v 0.52917 l -4.33013,2.5 v -0.52917 z"
           style="fill:#d33806;fill-opacity:1;fill-rule:evenodd;stroke:none;stroke-width:0.26458332px;stroke-linecap:butt;stroke-linejoin:miter;stroke-opacity:1" />
      </g>
      <g
         id="g1880"
         transform="translate(-5.1961485,2.9999997)">
        <path
           sodipodi:nodetypes="ccccc"
           style="fill:#d33806;fill-opacity:1;fill-rule:evenodd;stroke:none;stroke-width:0.26458332px;stroke-linecap:butt;stroke-linejoin:miter;stroke-opacity:1"
           d="m 212.17622,137.50001 -4.33013,3.02917 3.46411,2 4.33012,-3.02917 z"
           id="path1872"
           inkscape:connector-curvature="0" />
        <path
           sodipodi:nodetypes="ccccc"
           inkscape:connector-curvature="0"
           id="path1874"
           d="m 212.17622,137.50001 -4.33013,2.5 3.46411,2 4.33012,-2.5 z"
           style="fill:#f87b54;fill-opacity:1;fill-rule:evenodd;stroke:none;stroke-width:0.26458332px;stroke-linecap:butt;stroke-linejoin:miter;stroke-opacity:1" />
        <path
           inkscape:connector-curvature="0"
           id="path1876"
           d="m 207.84609,140.00001 v 0.52917 l 3.46411,2 v -0.52917 z"
           style="fill:#d33806;fill-opacity:1;fill-rule:evenodd;stroke:none;stroke-width:0.26458332px;stroke-linecap:butt;stroke-linejoin:miter;stroke-opacity:1" />
        <path
           sodipodi:nodetypes="ccccc"
           inkscape:connector-curvature="0"
           id="path1878"
           d="m 215.64033,139.50001 v 0.52917 l -4.33013,2.5 v -0.52917 z"
           style="fill:#d33806;fill-opacity:1;fill-rule:evenodd;stroke:none;stroke-width:0.26458332px;stroke-linecap:butt;stroke-linejoin:miter;stroke-opacity:1" />
      </g>
      <g
         transform="translate(-11.258326,6.4999997)"
         id="g1890">
        <path
           inkscape:connector-curvature="0"
           id="path1882"
           d="m 212.17622,137.50001 -4.33013,3.02917 3.46411,2 4.33012,-3.02917 z"
           style="fill:#d33806;fill-opacity:1;fill-rule:evenodd;stroke:none;stroke-width:0.26458332px;stroke-linecap:butt;stroke-linejoin:miter;stroke-opacity:1"
           sodipodi:nodetypes="ccccc" />
        <path
           style="fill:#f87b54;fill-opacity:1;fill-rule:evenodd;stroke:none;stroke-width:0.26458332px;stroke-linecap:butt;stroke-linejoin:miter;stroke-opacity:1"
           d="m 212.17622,137.50001 -4.33013,2.5 3.46411,2 4.33012,-2.5 z"
           id="path1884"
           inkscape:connector-curvature="0"
           sodipodi:nodetypes="ccccc" />
        <path
           style="fill:#d33806;fill-opacity:1;fill-rule:evenodd;stroke:none;stroke-width:0.26458332px;stroke-linecap:butt;stroke-linejoin:miter;stroke-opacity:1"
           d="m 207.84609,140.00001 v 0.52917 l 3.46411,2 v -0.52917 z"
           id="path1886"
           inkscape:connector-curvature="0" />
        <path
           style="fill:#d33806;fill-opacity:1;fill-rule:evenodd;stroke:none;stroke-width:0.26458332px;stroke-linecap:butt;stroke-linejoin:miter;stroke-opacity:1"
           d="m 215.64033,139.50001 v 0.52917 l -4.33013,2.5 v -0.52917 z"
           id="path1888"
           inkscape:connector-curvature="0"
           sodipodi:nodetypes="ccccc" />
      </g>
      <g
         id="g1900"
         transform="translate(-17.320504,9.9999997)">
        <path
           sodipodi:nodetypes="ccccc"
           style="fill:#d33806;fill-opacity:1;fill-rule:evenodd;stroke:none;stroke-width:0.26458332px;stroke-linecap:butt;stroke-linejoin:miter;stroke-opacity:1"
           d="m 212.17622,137.50001 -4.33013,3.02917 3.46411,2 4.33012,-3.02917 z"
           id="path1892"
           inkscape:connector-curvature="0" />
        <path
           sodipodi:nodetypes="ccccc"
           inkscape:connector-curvature="0"
           id="path1894"
           d="m 212.17622,137.50001 -4.33013,2.5 3.46411,2 4.33012,-2.5 z"
           style="fill:#f87b54;fill-opacity:1;fill-rule:evenodd;stroke:none;stroke-width:0.26458332px;stroke-linecap:butt;stroke-linejoin:miter;stroke-opacity:1" />
        <path
           inkscape:connector-curvature="0"
           id="path1896"
           d="m 207.84609,140.00001 v 0.52917 l 3.46411,2 v -0.52917 z"
           style="fill:#d33806;fill-opacity:1;fill-rule:evenodd;stroke:none;stroke-width:0.26458332px;stroke-linecap:butt;stroke-linejoin:miter;stroke-opacity:1" />
        <path
           sodipodi:nodetypes="ccccc"
           inkscape:connector-curvature="0"
           id="path1898"
           d="m 215.64033,139.50001 v 0.52917 l -4.33013,2.5 v -0.52917 z"
           style="fill:#d33806;fill-opacity:1;fill-rule:evenodd;stroke:none;stroke-width:0.26458332px;stroke-linecap:butt;stroke-linejoin:miter;stroke-opacity:1" />
      </g>
      <g
         transform="translate(3.9271875e-6,5.9999997)"
         id="g1910">
        <path
           inkscape:connector-curvature="0"
           id="path1902"
           d="m 212.17622,137.50001 -4.33013,3.02917 3.46411,2 4.33012,-3.02917 z"
           style="fill:#d33806;fill-opacity:1;fill-rule:evenodd;stroke:none;stroke-width:0.26458332px;stroke-linecap:butt;stroke-linejoin:miter;stroke-opacity:1"
           sodipodi:nodetypes="ccccc" />
        <path
           style="fill:#f87b54;fill-opacity:1;fill-rule:evenodd;stroke:none;stroke-width:0.26458332px;stroke-linecap:butt;stroke-linejoin:miter;stroke-opacity:1"
           d="m 212.17622,137.50001 -4.33013,2.5 3.46411,2 4.33012,-2.5 z"
           id="path1904"
           inkscape:connector-curvature="0"
           sodipodi:nodetypes="ccccc" />
        <path
           style="fill:#d33806;fill-opacity:1;fill-rule:evenodd;stroke:none;stroke-width:0.26458332px;stroke-linecap:butt;stroke-linejoin:miter;stroke-opacity:1"
           d="m 207.84609,140.00001 v 0.52917 l 3.46411,2 v -0.52917 z"
           id="path1906"
           inkscape:connector-curvature="0" />
        <path
           style="fill:#d33806;fill-opacity:1;fill-rule:evenodd;stroke:none;stroke-width:0.26458332px;stroke-linecap:butt;stroke-linejoin:miter;stroke-opacity:1"
           d="m 215.64033,139.50001 v 0.52917 l -4.33013,2.5 v -0.52917 z"
           id="path1908"
           inkscape:connector-curvature="0"
           sodipodi:nodetypes="ccccc" />
      </g>
      <g
         id="g1920"
         transform="translate(-6.0621739,9.4999997)">
        <path
           sodipodi:nodetypes="ccccc"
           style="fill:#d33806;fill-opacity:1;fill-rule:evenodd;stroke:none;stroke-width:0.26458332px;stroke-linecap:butt;stroke-linejoin:miter;stroke-opacity:1"
           d="m 212.17622,137.50001 -4.33013,3.02917 3.46411,2 4.33012,-3.02917 z"
           id="path1912"
           inkscape:connector-curvature="0" />
        <path
           sodipodi:nodetypes="ccccc"
           inkscape:connector-curvature="0"
           id="path1914"
           d="m 212.17622,137.50001 -4.33013,2.5 3.46411,2 4.33012,-2.5 z"
           style="fill:#f87b54;fill-opacity:1;fill-rule:evenodd;stroke:none;stroke-width:0.26458332px;stroke-linecap:butt;stroke-linejoin:miter;stroke-opacity:1" />
        <path
           inkscape:connector-curvature="0"
           id="path1916"
           d="m 207.84609,140.00001 v 0.52917 l 3.46411,2 v -0.52917 z"
           style="fill:#d33806;fill-opacity:1;fill-rule:evenodd;stroke:none;stroke-width:0.26458332px;stroke-linecap:butt;stroke-linejoin:miter;stroke-opacity:1" />
        <path
           sodipodi:nodetypes="ccccc"
           inkscape:connector-curvature="0"
           id="path1918"
           d="m 215.64033,139.50001 v 0.52917 l -4.33013,2.5 v -0.52917 z"
           style="fill:#d33806;fill-opacity:1;fill-rule:evenodd;stroke:none;stroke-width:0.26458332px;stroke-linecap:butt;stroke-linejoin:miter;stroke-opacity:1" />
      </g>
      <g
         transform="translate(-12.124352,13)"
         id="g1930">
        <path
           inkscape:connector-curvature="0"
           id="path1922"
           d="m 212.17622,137.50001 -4.33013,3.02917 3.46411,2 4.33012,-3.02917 z"
           style="fill:#d33806;fill-opacity:1;fill-rule:evenodd;stroke:none;stroke-width:0.26458332px;stroke-linecap:butt;stroke-linejoin:miter;stroke-opacity:1"
           sodipodi:nodetypes="ccccc" />
        <path
           style="fill:#f87b54;fill-opacity:1;fill-rule:evenodd;stroke:none;stroke-width:0.26458332px;stroke-linecap:butt;stroke-linejoin:miter;stroke-opacity:1"
           d="m 212.17622,137.50001 -4.33013,2.5 3.46411,2 4.33012,-2.5 z"
           id="path1924"
           inkscape:connector-curvature="0"
           sodipodi:nodetypes="ccccc" />
        <path
           style="fill:#d33806;fill-opacity:1;fill-rule:evenodd;stroke:none;stroke-width:0.26458332px;stroke-linecap:butt;stroke-linejoin:miter;stroke-opacity:1"
           d="m 207.84609,140.00001 v 0.52917 l 3.46411,2 v -0.52917 z"
           id="path1926"
           inkscape:connector-curvature="0" />
        <path
           style="fill:#d33806;fill-opacity:1;fill-rule:evenodd;stroke:none;stroke-width:0.26458332px;stroke-linecap:butt;stroke-linejoin:miter;stroke-opacity:1"
           d="m 215.64033,139.50001 v 0.52917 l -4.33013,2.5 v -0.52917 z"
           id="path1928"
           inkscape:connector-curvature="0"
           sodipodi:nodetypes="ccccc" />
      </g>
      <g
         transform="translate(5.1961563,8.9999997)"
         id="g1940">
        <path
           inkscape:connector-curvature="0"
           id="path1932"
           d="m 212.17622,137.50001 -4.33013,3.02917 3.46411,2 4.33012,-3.02917 z"
           style="fill:#d33806;fill-opacity:1;fill-rule:evenodd;stroke:none;stroke-width:0.26458332px;stroke-linecap:butt;stroke-linejoin:miter;stroke-opacity:1"
           sodipodi:nodetypes="ccccc" />
        <path
           style="fill:#f87b54;fill-opacity:1;fill-rule:evenodd;stroke:none;stroke-width:0.26458332px;stroke-linecap:butt;stroke-linejoin:miter;stroke-opacity:1"
           d="m 212.17622,137.50001 -4.33013,2.5 3.46411,2 4.33012,-2.5 z"
           id="path1934"
           inkscape:connector-curvature="0"
           sodipodi:nodetypes="ccccc" />
        <path
           style="fill:#d33806;fill-opacity:1;fill-rule:evenodd;stroke:none;stroke-width:0.26458332px;stroke-linecap:butt;stroke-linejoin:miter;stroke-opacity:1"
           d="m 207.84609,140.00001 v 0.52917 l 3.46411,2 v -0.52917 z"
           id="path1936"
           inkscape:connector-curvature="0" />
        <path
           style="fill:#d33806;fill-opacity:1;fill-rule:evenodd;stroke:none;stroke-width:0.26458332px;stroke-linecap:butt;stroke-linejoin:miter;stroke-opacity:1"
           d="m 215.64033,139.50001 v 0.52917 l -4.33013,2.5 v -0.52917 z"
           id="path1938"
           inkscape:connector-curvature="0"
           sodipodi:nodetypes="ccccc" />
      </g>
      <g
         id="g1950"
         transform="translate(10.392309,12)">
        <path
           sodipodi:nodetypes="ccccc"
           style="fill:#d33806;fill-opacity:1;fill-rule:evenodd;stroke:none;stroke-width:0.26458332px;stroke-linecap:butt;stroke-linejoin:miter;stroke-opacity:1"
           d="m 212.17622,137.50001 -4.33013,3.02917 3.46411,2 4.33012,-3.02917 z"
           id="path1942"
           inkscape:connector-curvature="0" />
        <path
           sodipodi:nodetypes="ccccc"
           inkscape:connector-curvature="0"
           id="path1944"
           d="m 212.17622,137.50001 -4.33013,2.5 3.46411,2 4.33012,-2.5 z"
           style="fill:#f87b54;fill-opacity:1;fill-rule:evenodd;stroke:none;stroke-width:0.26458332px;stroke-linecap:butt;stroke-linejoin:miter;stroke-opacity:1" />
        <path
           inkscape:connector-curvature="0"
           id="path1946"
           d="m 207.84609,140.00001 v 0.52917 l 3.46411,2 v -0.52917 z"
           style="fill:#d33806;fill-opacity:1;fill-rule:evenodd;stroke:none;stroke-width:0.26458332px;stroke-linecap:butt;stroke-linejoin:miter;stroke-opacity:1" />
        <path
           sodipodi:nodetypes="ccccc"
           inkscape:connector-curvature="0"
           id="path1948"
           d="m 215.64033,139.50001 v 0.52917 l -4.33013,2.5 v -0.52917 z"
           style="fill:#d33806;fill-opacity:1;fill-rule:evenodd;stroke:none;stroke-width:0.26458332px;stroke-linecap:butt;stroke-linejoin:miter;stroke-opacity:1" />
      </g>
      <g
         id="g1964"
         transform="translate(-6.9281993,16)">
        <path
           sodipodi:nodetypes="ccccc"
           style="fill:#d33806;fill-opacity:1;fill-rule:evenodd;stroke:none;stroke-width:0.26458332px;stroke-linecap:butt;stroke-linejoin:miter;stroke-opacity:1"
           d="m 212.17622,137.50001 -4.33013,3.02917 3.46411,2 4.33012,-3.02917 z"
           id="path1956"
           inkscape:connector-curvature="0" />
        <path
           sodipodi:nodetypes="ccccc"
           inkscape:connector-curvature="0"
           id="path1958"
           d="m 212.17622,137.50001 -4.33013,2.5 3.46411,2 4.33012,-2.5 z"
           style="fill:#f87b54;fill-opacity:1;fill-rule:evenodd;stroke:none;stroke-width:0.26458332px;stroke-linecap:butt;stroke-linejoin:miter;stroke-opacity:1" />
        <path
           inkscape:connector-curvature="0"
           id="path1960"
           d="m 207.84609,140.00001 v 0.52917 l 3.46411,2 v -0.52917 z"
           style="fill:#d33806;fill-opacity:1;fill-rule:evenodd;stroke:none;stroke-width:0.26458332px;stroke-linecap:butt;stroke-linejoin:miter;stroke-opacity:1" />
        <path
           sodipodi:nodetypes="ccccc"
           inkscape:connector-curvature="0"
           id="path1962"
           d="m 215.64033,139.50001 v 0.52917 l -4.33013,2.5 v -0.52917 z"
           style="fill:#d33806;fill-opacity:1;fill-rule:evenodd;stroke:none;stroke-width:0.26458332px;stroke-linecap:butt;stroke-linejoin:miter;stroke-opacity:1" />
      </g>
      <g
         transform="translate(-0.86602688,12.5)"
         id="g1974">
        <path
           inkscape:connector-curvature="0"
           id="path1966"
           d="m 212.17622,137.50001 -4.33013,3.02917 3.46411,2 4.33012,-3.02917 z"
           style="fill:#d33806;fill-opacity:1;fill-rule:evenodd;stroke:none;stroke-width:0.26458332px;stroke-linecap:butt;stroke-linejoin:miter;stroke-opacity:1"
           sodipodi:nodetypes="ccccc" />
        <path
           style="fill:#f87b54;fill-opacity:1;fill-rule:evenodd;stroke:none;stroke-width:0.26458332px;stroke-linecap:butt;stroke-linejoin:miter;stroke-opacity:1"
           d="m 212.17622,137.50001 -4.33013,2.5 3.46411,2 4.33012,-2.5 z"
           id="path1968"
           inkscape:connector-curvature="0"
           sodipodi:nodetypes="ccccc" />
        <path
           style="fill:#d33806;fill-opacity:1;fill-rule:evenodd;stroke:none;stroke-width:0.26458332px;stroke-linecap:butt;stroke-linejoin:miter;stroke-opacity:1"
           d="m 207.84609,140.00001 v 0.52917 l 3.46411,2 v -0.52917 z"
           id="path1970"
           inkscape:connector-curvature="0" />
        <path
           style="fill:#d33806;fill-opacity:1;fill-rule:evenodd;stroke:none;stroke-width:0.26458332px;stroke-linecap:butt;stroke-linejoin:miter;stroke-opacity:1"
           d="m 215.64033,139.50001 v 0.52917 l -4.33013,2.5 v -0.52917 z"
           id="path1972"
           inkscape:connector-curvature="0"
           sodipodi:nodetypes="ccccc" />
      </g>
      <g
         transform="translate(-1.7320469,19)"
         id="g1984">
        <path
           inkscape:connector-curvature="0"
           id="path1976"
           d="m 212.17622,137.50001 -4.33013,3.02917 3.46411,2 4.33012,-3.02917 z"
           style="fill:#d33806;fill-opacity:1;fill-rule:evenodd;stroke:none;stroke-width:0.26458332px;stroke-linecap:butt;stroke-linejoin:miter;stroke-opacity:1"
           sodipodi:nodetypes="ccccc" />
        <path
           style="fill:#f87b54;fill-opacity:1;fill-rule:evenodd;stroke:none;stroke-width:0.26458332px;stroke-linecap:butt;stroke-linejoin:miter;stroke-opacity:1"
           d="m 212.17622,137.50001 -4.33013,2.5 3.46411,2 4.33012,-2.5 z"
           id="path1978"
           inkscape:connector-curvature="0"
           sodipodi:nodetypes="ccccc" />
        <path
           style="fill:#d33806;fill-opacity:1;fill-rule:evenodd;stroke:none;stroke-width:0.26458332px;stroke-linecap:butt;stroke-linejoin:miter;stroke-opacity:1"
           d="m 207.84609,140.00001 v 0.52917 l 3.46411,2 v -0.52917 z"
           id="path1980"
           inkscape:connector-curvature="0" />
        <path
           style="fill:#d33806;fill-opacity:1;fill-rule:evenodd;stroke:none;stroke-width:0.26458332px;stroke-linecap:butt;stroke-linejoin:miter;stroke-opacity:1"
           d="m 215.64033,139.50001 v 0.52917 l -4.33013,2.5 v -0.52917 z"
           id="path1982"
           inkscape:connector-curvature="0"
           sodipodi:nodetypes="ccccc" />
      </g>
      <g
         id="g1994"
         transform="translate(4.3301309,15.5)">
        <path
           sodipodi:nodetypes="ccccc"
           style="fill:#d33806;fill-opacity:1;fill-rule:evenodd;stroke:none;stroke-width:0.26458332px;stroke-linecap:butt;stroke-linejoin:miter;stroke-opacity:1"
           d="m 212.17622,137.50001 -4.33013,3.02917 3.46411,2 4.33012,-3.02917 z"
           id="path1986"
           inkscape:connector-curvature="0" />
        <path
           sodipodi:nodetypes="ccccc"
           inkscape:connector-curvature="0"
           id="path1988"
           d="m 212.17622,137.50001 -4.33013,2.5 3.46411,2 4.33012,-2.5 z"
           style="fill:#f87b54;fill-opacity:1;fill-rule:evenodd;stroke:none;stroke-width:0.26458332px;stroke-linecap:butt;stroke-linejoin:miter;stroke-opacity:1" />
        <path
           inkscape:connector-curvature="0"
           id="path1990"
           d="m 207.84609,140.00001 v 0.52917 l 3.46411,2 v -0.52917 z"
           style="fill:#d33806;fill-opacity:1;fill-rule:evenodd;stroke:none;stroke-width:0.26458332px;stroke-linecap:butt;stroke-linejoin:miter;stroke-opacity:1" />
        <path
           sodipodi:nodetypes="ccccc"
           inkscape:connector-curvature="0"
           id="path1992"
           d="m 215.64033,139.50001 v 0.52917 l -4.33013,2.5 v -0.52917 z"
           style="fill:#d33806;fill-opacity:1;fill-rule:evenodd;stroke:none;stroke-width:0.26458332px;stroke-linecap:butt;stroke-linejoin:miter;stroke-opacity:1" />
      </g>
      <path
         inkscape:connector-curvature="0"
         id="path2012"
         d="m 187.92751,141.50001 v 7 l 1.73205,-1 v -7 z"
         style="fill:#ffffff;fill-opacity:0.29411765;fill-rule:evenodd;stroke:none;stroke-width:0.26458332px;stroke-linecap:butt;stroke-linejoin:miter;stroke-opacity:1" />
    </g>
    <g
       id="g1644"
       transform="translate(-93.530729,16)">
      <path
         style="fill:#f66335;fill-opacity:1;fill-rule:evenodd;stroke:none;stroke-width:0.26458332px;stroke-linecap:butt;stroke-linejoin:miter;stroke-opacity:1"
         d="m 164.54482,172.00001 43.30128,-25 60.62178,35 -43.30128,25 z"
         id="path823"
         inkscape:connector-curvature="0"
         sodipodi:nodetypes="ccccc" />
      <path
         sodipodi:nodetypes="ccccc"
         inkscape:connector-curvature="0"
         id="path825"
         d="m 268.46788,182.00001 v 2 l -43.30128,25 v -2 z"
         style="fill:#d33806;fill-opacity:1;fill-rule:evenodd;stroke:none;stroke-width:0.26458332px;stroke-linecap:butt;stroke-linejoin:miter;stroke-opacity:1" />
      <path
         sodipodi:nodetypes="ccccc"
         style="fill:#c33609;fill-opacity:1;fill-rule:evenodd;stroke:none;stroke-width:0.26458332px;stroke-linecap:butt;stroke-linejoin:miter;stroke-opacity:1"
         d="m 164.54483,172.00001 v 2 l 60.62177,35 v -2 z"
         id="path827"
         inkscape:connector-curvature="0" />
      <path
         sodipodi:nodetypes="ccccc"
         inkscape:connector-curvature="0"
         id="path862"
         d="m 164.54482,160.00001 43.30128,-25 60.62178,35 -43.30128,25 z"
         style="fill:#f66335;fill-opacity:1;fill-rule:evenodd;stroke:none;stroke-width:0.26458332px;stroke-linecap:butt;stroke-linejoin:miter;stroke-opacity:1" />
      <path
         style="fill:#d33806;fill-opacity:1;fill-rule:evenodd;stroke:none;stroke-width:0.26458332px;stroke-linecap:butt;stroke-linejoin:miter;stroke-opacity:1"
         d="m 268.46788,170.00001 v 2 l -43.30128,25 v -2 z"
         id="path864"
         inkscape:connector-curvature="0"
         sodipodi:nodetypes="ccccc" />
      <path
         inkscape:connector-curvature="0"
         id="path866"
         d="m 164.54483,160.00001 v 2 l 60.62177,35 v -2 z"
         style="fill:#c33609;fill-opacity:1;fill-rule:evenodd;stroke:none;stroke-width:0.26458332px;stroke-linecap:butt;stroke-linejoin:miter;stroke-opacity:1"
         sodipodi:nodetypes="ccccc" />
      <path
         sodipodi:nodetypes="csscc"
         inkscape:connector-curvature="0"
         id="path870"
         d="m 164.54483,160.00001 c 0,0 -1.39872,0.42265 -1.73206,1 -2.33334,4.04145 -4.04145,11.66666 0,14 0.57735,0.33334 1.73206,-1 1.73206,-1 z"
         style="fill:#f6511d;fill-opacity:1;fill-rule:evenodd;stroke:none;stroke-width:0.26458332px;stroke-linecap:butt;stroke-linejoin:miter;stroke-opacity:1" />
      <path
         sodipodi:nodetypes="ccccc"
         inkscape:connector-curvature="0"
         id="path874"
         d="M 164.54483,160.00001 225.16659,195 l -1.73206,15 -60.62176,-34.99999 z"
         style="display:inline;fill:url(#linearGradient1632);fill-opacity:1;fill-rule:evenodd;stroke:none;stroke-width:0.26458332px;stroke-linecap:butt;stroke-linejoin:miter;stroke-opacity:1" />
      <path
         style="fill:#d33806;fill-opacity:1;fill-rule:evenodd;stroke:none;stroke-width:0.26458332px;stroke-linecap:butt;stroke-linejoin:miter;stroke-opacity:1"
         d="m 225.1666,195.00001 c 0,0 -1.39872,0.42265 -1.73206,1 -2.33334,4.04145 -4.04145,11.66666 0,14 0.57735,0.33334 1.73206,-1 1.73206,-1 z"
         id="path872"
         inkscape:connector-curvature="0"
         sodipodi:nodetypes="csscc" />
      <path
         sodipodi:nodetypes="ccccc"
         inkscape:connector-curvature="0"
         id="path876"
         d="m 266.73582,173.00001 c -0.86602,3.5 -0.86602,6.5 0,10 l -41.56922,24 v -10 z"
         style="fill:#bbc2c3;fill-opacity:1;fill-rule:evenodd;stroke:none;stroke-width:0.26458332px;stroke-linecap:butt;stroke-linejoin:miter;stroke-opacity:1" />
    </g>
    <g
       id="g1666"
       transform="translate(-91.549765,-0.882204)">
      <path
         sodipodi:nodetypes="ccccc"
         inkscape:connector-curvature="0"
         id="path1646"
         d="m 164.54482,172.00001 43.30128,-25 60.62178,35 -43.30128,25 z"
         style="fill:#f66335;fill-opacity:1;fill-rule:evenodd;stroke:none;stroke-width:0.26458332px;stroke-linecap:butt;stroke-linejoin:miter;stroke-opacity:1" />
      <path
         style="fill:#d33806;fill-opacity:1;fill-rule:evenodd;stroke:none;stroke-width:0.26458332px;stroke-linecap:butt;stroke-linejoin:miter;stroke-opacity:1"
         d="m 268.46788,182.00001 v 2 l -43.30128,25 v -2 z"
         id="path1648"
         inkscape:connector-curvature="0"
         sodipodi:nodetypes="ccccc" />
      <path
         inkscape:connector-curvature="0"
         id="path1650"
         d="m 164.54483,172.00001 v 2 l 60.62177,35 v -2 z"
         style="fill:#c33609;fill-opacity:1;fill-rule:evenodd;stroke:none;stroke-width:0.26458332px;stroke-linecap:butt;stroke-linejoin:miter;stroke-opacity:1"
         sodipodi:nodetypes="ccccc" />
      <path
         style="fill:#f66335;fill-opacity:1;fill-rule:evenodd;stroke:none;stroke-width:0.26458332px;stroke-linecap:butt;stroke-linejoin:miter;stroke-opacity:1"
         d="m 164.54482,160.00001 43.30128,-25 60.62178,35 -43.30128,25 z"
         id="path1652"
         inkscape:connector-curvature="0"
         sodipodi:nodetypes="ccccc" />
      <path
         sodipodi:nodetypes="ccccc"
         inkscape:connector-curvature="0"
         id="path1654"
         d="m 268.46788,170.00001 v 2 l -43.30128,25 v -2 z"
         style="fill:#d33806;fill-opacity:1;fill-rule:evenodd;stroke:none;stroke-width:0.26458332px;stroke-linecap:butt;stroke-linejoin:miter;stroke-opacity:1" />
      <path
         sodipodi:nodetypes="ccccc"
         style="fill:#c33609;fill-opacity:1;fill-rule:evenodd;stroke:none;stroke-width:0.26458332px;stroke-linecap:butt;stroke-linejoin:miter;stroke-opacity:1"
         d="m 164.54483,160.00001 v 2 l 60.62177,35 v -2 z"
         id="path1656"
         inkscape:connector-curvature="0" />
      <path
         style="fill:#f6511d;fill-opacity:1;fill-rule:evenodd;stroke:none;stroke-width:0.26458332px;stroke-linecap:butt;stroke-linejoin:miter;stroke-opacity:1"
         d="m 164.54483,160.00001 c 0,0 -1.39872,0.42265 -1.73206,1 -2.33334,4.04145 -4.04145,11.66666 0,14 0.57735,0.33334 1.73206,-1 1.73206,-1 z"
         id="path1658"
         inkscape:connector-curvature="0"
         sodipodi:nodetypes="csscc" />
      <path
         style="display:inline;fill:url(#linearGradient1668);fill-opacity:1;fill-rule:evenodd;stroke:none;stroke-width:0.26458332px;stroke-linecap:butt;stroke-linejoin:miter;stroke-opacity:1"
         d="m 164.54483,160.00001 60.37285,34.88219 -1.73205,15 -60.37286,-34.88219 z"
         id="path1660"
         inkscape:connector-curvature="0"
         sodipodi:nodetypes="ccccc" />
      <path
         sodipodi:nodetypes="csscc"
         inkscape:connector-curvature="0"
         id="path1662"
         d="m 225.1666,195.00001 c 0,0 -1.39872,0.42265 -1.73206,1 -2.33334,4.04145 -4.04145,11.66666 0,14 0.57735,0.33334 1.73206,-1 1.73206,-1 z"
         style="fill:#d33806;fill-opacity:1;fill-rule:evenodd;stroke:none;stroke-width:0.26458332px;stroke-linecap:butt;stroke-linejoin:miter;stroke-opacity:1" />
      <path
         style="fill:#bbc2c3;fill-opacity:1;fill-rule:evenodd;stroke:none;stroke-width:0.26458332px;stroke-linecap:butt;stroke-linejoin:miter;stroke-opacity:1"
         d="m 266.73582,173.00001 c -0.86602,3.5 -0.86602,6.5 0,10 l -41.56922,24 v -10 z"
         id="path1664"
         inkscape:connector-curvature="0"
         sodipodi:nodetypes="ccccc" />
    </g>
    <g
       id="g1490"
       transform="matrix(1.5070386,0,0,1.5070386,-288.48211,-223.78177)"
       style="stroke-width:0.66355306">
      <path
         style="display:inline;opacity:1;fill:url(#linearGradient1492);fill-opacity:1;stroke:none;stroke-width:3.317765;stroke-linecap:round;stroke-linejoin:round;stroke-miterlimit:4;stroke-dasharray:none;stroke-opacity:1"
         d="m 955.76562,569.44922 a 49.097504,22.677149 0 0 0 -49.09765,22.67773 49.097504,22.677149 0 0 0 4.52539,9.44532 49.097504,22.677149 0 0 1 44.57226,-13.22657 49.097504,22.677149 0 0 1 44.57028,13.23242 49.097504,22.677149 0 0 0 4.5254,-9.45117 49.097504,22.677149 0 0 0 -49.09568,-22.67773 z"
         id="path1482"
         inkscape:connector-curvature="0"
         transform="matrix(0.26458333,0,0,0.26458333,0,85.333343)" />
      <ellipse
         id="ellipse1484"
         cy="243"
         cx="252.87943"
         style="display:inline;opacity:1;fill:url(#linearGradient2909);fill-opacity:1;stroke:none;stroke-width:0.87782532;stroke-linecap:round;stroke-linejoin:round;stroke-miterlimit:4;stroke-dasharray:none;stroke-opacity:1"
         rx="12.990381"
         ry="5.9999957" />
      <path
         style="opacity:1;fill:url(#linearGradient1494);fill-opacity:1;stroke:none;stroke-width:3.317765;stroke-linecap:round;stroke-linejoin:round;stroke-miterlimit:4;stroke-dasharray:none;stroke-opacity:1"
         d="m 903.39453,592.12695 v 18.89649 a 52.370668,25.801345 0 0 0 52.36914,25.80078 52.370668,25.801345 0 0 0 52.37113,-25.80078 v -18.89649 a 52.37071,25.801345 0 0 1 -3.8028,9.56641 52.37071,25.801345 0 0 1 -1.5312,1.67383 52.37071,25.801345 0 0 1 -0.7188,0.73047 52.37071,25.801345 0 0 1 -1.6386,1.39453 52.37071,25.801345 0 0 1 -1.08207,0.86719 52.37071,25.801345 0 0 1 -1.66016,1.13671 52.37071,25.801345 0 0 1 -1.52929,0.99024 52.37071,25.801345 0 0 1 -1.60352,0.89258 52.37071,25.801345 0 0 1 -1.9668,1.03906 52.37071,25.801345 0 0 1 -36.83594,7.50976 52.37071,25.801345 0 0 1 -35.69726,-6.97265 52.37071,25.801345 0 0 1 -3.32617,-1.67578 52.37071,25.801345 0 0 1 -0.4043,-0.22657 52.37071,25.801345 0 0 1 -2.77344,-1.70898 52.37071,25.801345 0 0 1 -0.58398,-0.40234 52.37071,25.801345 0 0 1 -2.22461,-1.69336 52.37071,25.801345 0 0 1 -0.63672,-0.54883 52.37071,25.801345 0 0 1 -1.78711,-1.71484 52.37071,25.801345 0 0 1 -0.53711,-0.5879 52.37071,25.801345 0 0 1 -4.40039,-10.26953 z"
         transform="matrix(0.26458333,0,0,0.26458333,0,85.333343)"
         id="path1486"
         inkscape:connector-curvature="0" />
      <path
         style="opacity:1;fill:#f66335;fill-opacity:1;stroke:none;stroke-width:3.317765;stroke-linecap:round;stroke-linejoin:round;stroke-miterlimit:4;stroke-dasharray:none;stroke-opacity:1"
         d="m 955.76562,566.32422 a 52.370709,25.801345 0 0 0 -52.37109,25.80273 52.370709,25.801345 0 0 0 52.37109,25.80078 52.370709,25.801345 0 0 0 52.36918,-25.80078 52.370709,25.801345 0 0 0 -52.36918,-25.80273 z m 0,3.125 a 49.097504,22.677149 0 0 1 49.09568,22.67773 49.097504,22.677149 0 0 1 -49.09568,22.67578 49.097504,22.677149 0 0 1 -49.09765,-22.67578 49.097504,22.677149 0 0 1 49.09765,-22.67773 z"
         id="path1488"
         inkscape:connector-curvature="0"
         transform="matrix(0.26458333,0,0,0.26458333,0,85.333343)" />
    </g>
    <path
       style="fill:url(#linearGradient1556);fill-opacity:1;fill-rule:evenodd;stroke:none;stroke-width:0.26458332px;stroke-linecap:butt;stroke-linejoin:miter;stroke-opacity:1"
       d="m 117.73604,155.35607 c 4.33013,2.50001 4.33013,7.50001 0,5.00001 l -8.66025,-5.00001 c -4.73103,-2.71176 -1.25653,-5.69593 0,-5 z"
       id="path1512"
       inkscape:connector-curvature="0"
       sodipodi:nodetypes="ccccc" />
    <path
       style="fill:#b5360d;fill-opacity:1;fill-rule:evenodd;stroke:none;stroke-width:0.26458332px;stroke-linecap:butt;stroke-linejoin:miter;stroke-opacity:1"
       d="m 150.64502,176.35608 v -5 l -5.19615,3 v 5 z"
       id="path1502"
       inkscape:connector-curvature="0"
       sodipodi:nodetypes="ccccc" />
    <path
       style="fill:#d33806;fill-opacity:1;fill-rule:evenodd;stroke:none;stroke-width:0.26458332px;stroke-linecap:butt;stroke-linejoin:miter;stroke-opacity:1"
       d="m 116.004,151.35607 -5.19615,3 v 5.00001 l 5.19615,-3 z"
       id="path1506"
       inkscape:connector-curvature="0"
       sodipodi:nodetypes="ccccc" />
    <path
       style="fill:#f6511d;fill-opacity:1;fill-rule:evenodd;stroke:none;stroke-width:0.26458332px;stroke-linecap:butt;stroke-linejoin:miter;stroke-opacity:1"
       d="m 116.004,151.35607 34.64102,20.00001 -5.19615,3 -34.64102,-20.00001 z"
       id="path1500"
       inkscape:connector-curvature="0"
       sodipodi:nodetypes="ccccc" />
    <path
       style="fill:#d33806;fill-opacity:1;fill-rule:evenodd;stroke:none;stroke-width:0.26458332px;stroke-linecap:butt;stroke-linejoin:miter;stroke-opacity:1"
       d="m 110.80785,154.35607 34.64102,20.00001 v 5 l -34.64102,-20 z"
       id="path1508"
       inkscape:connector-curvature="0" />
    <g
       id="g1731">
      <path
         inkscape:connector-curvature="0"
         id="path1697"
         d="m 73.612157,209.50001 c -4.330126,-2.5 -8.660251,0 -8.660251,0 0,0 -25.980763,15 -30.310889,17.5 -4.330128,2.5 0,5 0,5 0,0 51.961523,30 56.291649,32.5 4.330128,2.5 8.660254,0 8.660254,0 0,0 25.98076,-15 30.31089,-17.5 4.33013,-2.5 0,-5 0,-5 z"
         style="fill:#f66335;fill-opacity:1;fill-rule:evenodd;stroke:none;stroke-width:0.26458332px;stroke-linecap:butt;stroke-linejoin:miter;stroke-opacity:1" />
      <path
         style="fill:#f6511d;fill-opacity:1;fill-rule:evenodd;stroke:none;stroke-width:0.26458332px;stroke-linecap:butt;stroke-linejoin:miter;stroke-opacity:1"
         d="m 73.612156,212.50001 c -4.330126,-2.5 -8.660251,0 -8.660251,0 0,0 -25.980763,15 -30.310889,17.5 -4.330128,2.5 0,5 0,5 0,0 51.961523,30 56.291649,32.5 4.330128,2.5 8.660254,0 8.660254,0 0,0 25.980761,-15 30.310891,-17.5 4.33013,-2.5 0,-5 0,-5 z"
         id="path1678"
         inkscape:connector-curvature="0" />
      <path
         inkscape:connector-curvature="0"
         id="path1699"
         d="m 32.77256,229.44167 v 3 l 2.397624,1.5 v -3 z"
         style="fill:#f6511d;fill-opacity:1;fill-rule:evenodd;stroke:none;stroke-width:0.26458332px;stroke-linecap:butt;stroke-linejoin:miter;stroke-opacity:1" />
      <path
         sodipodi:nodetypes="ccccc"
         inkscape:connector-curvature="0"
         id="path1701"
         d="m 131.83073,244.44813 -10e-6,3.17383 -1.97111,0.23386 0.0442,-2.85581 z"
         style="fill:#f6511d;fill-opacity:1;fill-rule:evenodd;stroke:none;stroke-width:0.26458332px;stroke-linecap:butt;stroke-linejoin:miter;stroke-opacity:1" />
      <path
         inkscape:connector-curvature="0"
         id="path1676"
         d="m 73.612157,209.50001 c -4.330126,-2.5 -8.660251,0 -8.660251,0 0,0 -25.980763,15 -30.310889,17.5 -4.330128,2.5 0,5 0,5 0,0 51.961523,30 56.291649,32.5 4.330128,2.5 8.660254,0 8.660254,0 0,0 25.98076,-15 30.31089,-17.5 4.33013,-2.5 0,-5 0,-5 z"
         style="fill:#f66335;fill-opacity:1;fill-rule:evenodd;stroke:none;stroke-width:0.26458332px;stroke-linecap:butt;stroke-linejoin:miter;stroke-opacity:1" />
      <path
         sodipodi:nodetypes="ccccc"
         inkscape:connector-curvature="0"
         id="path1680"
         d="m 69.282031,212.00001 -30.310888,17.5 0.866026,0.5 29.444862,-17 z"
         style="fill:#d33806;fill-opacity:1;fill-rule:evenodd;stroke:none;stroke-width:0.26458332px;stroke-linecap:butt;stroke-linejoin:miter;stroke-opacity:1" />
      <path
         sodipodi:nodetypes="ccccc"
         inkscape:connector-curvature="0"
         id="path1693"
         d="m 69.282031,212.00001 54.559599,31.5 -0.86602,0.5 -53.693579,-31 z"
         style="fill:#d33806;fill-opacity:1;fill-rule:evenodd;stroke:none;stroke-width:0.26458332px;stroke-linecap:butt;stroke-linejoin:miter;stroke-opacity:1" />
      <path
         sodipodi:nodetypes="ccccc"
         inkscape:connector-curvature="0"
         id="path1695"
         d="m 69.282031,213.00001 -29.444862,17 53.693575,31 29.444866,-17 z"
         style="fill:url(#linearGradient1717);fill-opacity:1;fill-rule:evenodd;stroke:none;stroke-width:0.26458332px;stroke-linecap:butt;stroke-linejoin:miter;stroke-opacity:1" />
      <path
         style="fill:#f59679;fill-opacity:1;fill-rule:evenodd;stroke:none;stroke-width:0.26458332px;stroke-linecap:butt;stroke-linejoin:miter;stroke-opacity:1"
         d="m 111.89816,252.24134 c -1,0 -2.59807,0.5 -2.59807,1.5 0,1 1.59807,1.5 2.59807,1.5 1,0 2.59808,-0.5 2.59808,-1.5 0,-1 -1.59808,-1.5 -2.59808,-1.5 z"
         id="path1705"
         inkscape:connector-curvature="0"
         sodipodi:nodetypes="aaaaa" />
      <path
         sodipodi:nodetypes="aaaaa"
         inkscape:connector-curvature="0"
         id="path1703"
         d="m 111.83421,252.4666 c -1,0 -2.59807,0.5 -2.59807,1.5 0,1 1.59807,1.5 2.59807,1.5 1,0 2.59808,-0.5 2.59808,-1.5 0,-1 -1.59808,-1.5 -2.59808,-1.5 z"
         style="fill:#d33806;fill-opacity:1;fill-rule:evenodd;stroke:none;stroke-width:0.26458332px;stroke-linecap:butt;stroke-linejoin:miter;stroke-opacity:1" />
      <path
         sodipodi:nodetypes="ccccc"
         inkscape:connector-curvature="0"
         id="path1707"
         d="m 79.674337,219.00001 v 34 l -5.196152,-3 v -34 z"
         style="fill:#ffffff;fill-opacity:0.29411765;fill-rule:evenodd;stroke:none;stroke-width:0.26458332px;stroke-linecap:butt;stroke-linejoin:miter;stroke-opacity:1" />
      <path
         sodipodi:nodetypes="ccccc"
         inkscape:connector-curvature="0"
         id="path1709"
         d="m 69.282032,213.00001 -10.392305,6 v 22 l 10.392305,6 z"
         style="fill:#f9f9f9;fill-opacity:0.29411765;fill-rule:evenodd;stroke:none;stroke-width:0.26458332px;stroke-linecap:butt;stroke-linejoin:miter;stroke-opacity:1" />
    </g>
    <ellipse
       style="opacity:1;fill:#ffffff;fill-opacity:0.13043476;stroke:none;stroke-width:1.33213878;stroke-linecap:round;stroke-linejoin:round;stroke-miterlimit:4;stroke-dasharray:none;stroke-opacity:1"
       id="path2913"
       cx="-90.213081"
       cy="125.21416"
       rx="1.1684712"
       ry="3.2661779"
       transform="matrix(0.31870732,-0.94785318,0.88201442,0.47122241,0,0)" />
  </g>
</svg>
