<?xml version="1.0" encoding="UTF-8" standalone="no"?>
<!-- Created with Inkscape (http://www.inkscape.org/) -->

<svg
   xmlns:dc="http://purl.org/dc/elements/1.1/"
   xmlns:cc="http://creativecommons.org/ns#"
   xmlns:rdf="http://www.w3.org/1999/02/22-rdf-syntax-ns#"
   xmlns:svg="http://www.w3.org/2000/svg"
   xmlns="http://www.w3.org/2000/svg"
   xmlns:sodipodi="http://sodipodi.sourceforge.net/DTD/sodipodi-0.dtd"
   xmlns:inkscape="http://www.inkscape.org/namespaces/inkscape"
   width="186.30305"
   height="186.30305"
   viewBox="0 0 49.292682 49.292684"
   version="1.1"
   id="svg8"
   inkscape:version="0.92.2 5c3e80d, 2017-08-06"
   sodipodi:docname="drawing.svg">
  <defs
     id="defs2" />
  <sodipodi:namedview
     id="base"
     pagecolor="#ffffff"
     bordercolor="#666666"
     borderopacity="1.0"
     inkscape:pageopacity="0.0"
     inkscape:pageshadow="2"
     inkscape:zoom="0.9899495"
     inkscape:cx="-19.504656"
     inkscape:cy="85.132035"
     inkscape:document-units="mm"
     inkscape:current-layer="layer1"
     showgrid="true"
     units="px"
     width="1200px"
     inkscape:snap-global="false"
     inkscape:window-width="1280"
     inkscape:window-height="756"
     inkscape:window-x="0"
     inkscape:window-y="0"
     inkscape:window-maximized="1"
     fit-margin-top="0"
     fit-margin-left="0"
     fit-margin-right="0"
     fit-margin-bottom="0">
    <inkscape:grid
       type="xygrid"
       id="grid815"
       enabled="false"
       empspacing="5"
       originx="-137.88335"
       originy="-75.895287" />
  </sodipodi:namedview>
  <metadata
     id="metadata5">
    <rdf:RDF>
      <cc:Work
         rdf:about="">
        <dc:format>image/svg+xml</dc:format>
        <dc:type
           rdf:resource="http://purl.org/dc/dcmitype/StillImage" />
        <dc:title />
      </cc:Work>
    </rdf:RDF>
  </metadata>
  <g
     inkscape:label="Layer 1"
     inkscape:groupmode="layer"
     id="layer1"
     transform="translate(-137.88335,-171.81203)">
    <path
       style="fill:none;fill-rule:evenodd;stroke:#26aee7;stroke-width:1.32291663;stroke-linecap:butt;stroke-linejoin:miter;stroke-miterlimit:4;stroke-dasharray:none;stroke-opacity:0.97647059"
       d="m 924.52976,532.85714 v 15.875 l 2.64583,-2.64583 2.64584,2.64583 2.64583,-2.64583 2.64583,2.64583 2.64584,-2.64583 2.64583,2.64583 v -15.875 z"
       id="path1100"
       inkscape:connector-curvature="0" />
    <path
       style="fill:#00bf5e;fill-opacity:1;fill-rule:evenodd;stroke:none;stroke-width:0.26458332px;stroke-linecap:butt;stroke-linejoin:miter;stroke-opacity:1"
       d="m 402.16667,43.000003 h 84.66666 L 492.125,-115.75 h -95.25 z"
       id="path908"
       inkscape:connector-curvature="0" />
    <g
       id="g1166">
      <rect
         ry="2.6458333"
         y="244.08334"
         x="465.66666"
         height="26.458332"
         width="10.583374"
         id="rect923"
         style="opacity:1;fill:#000000;fill-opacity:1;stroke:none;stroke-width:0.52916664;stroke-linecap:round;stroke-linejoin:round;stroke-miterlimit:4;stroke-dasharray:none;stroke-opacity:1" />
      <rect
         style="opacity:1;fill:#000000;fill-opacity:1;stroke:none;stroke-width:0.52916664;stroke-linecap:round;stroke-linejoin:round;stroke-miterlimit:4;stroke-dasharray:none;stroke-opacity:1"
         id="rect927"
         width="10.583374"
         height="26.458332"
         x="550.33331"
         y="244.08334"
         ry="2.6458333" />
      <path
         sodipodi:nodetypes="sssssssss"
         inkscape:connector-curvature="0"
         id="rect918"
         d="m 468.97395,117.08334 h 88.63541 c 1.83224,0 3.36685,1.3875 3.3073,3.10894 l -5.29167,152.95922 c -0.0596,1.72144 -1.47506,3.10893 -3.3073,3.10893 h -78.05207 c -1.83224,0 -3.24774,-1.38749 -3.30729,-3.10893 l -5.29167,-152.95922 c -0.0596,-1.72144 1.47505,-3.10894 3.30729,-3.10894 z"
         style="opacity:1;fill:#00bf5e;fill-opacity:1;stroke:none;stroke-width:0.52916664;stroke-linecap:round;stroke-linejoin:round;stroke-miterlimit:4;stroke-dasharray:none;stroke-opacity:1" />
      <rect
         ry="2.6458333"
         y="101.20834"
         x="476.25"
         height="10.583333"
         width="74.083336"
         id="rect933"
         style="opacity:1;fill:#04b058;fill-opacity:1;stroke:none;stroke-width:0.52916664;stroke-linecap:round;stroke-linejoin:round;stroke-miterlimit:4;stroke-dasharray:none;stroke-opacity:1" />
      <rect
         ry="2.6458333"
         y="106.5"
         x="465.66666"
         height="10.583333"
         width="95.25"
         id="rect931"
         style="opacity:1;fill:#0bbe62;fill-opacity:1;stroke:none;stroke-width:0.52916664;stroke-linecap:round;stroke-linejoin:round;stroke-miterlimit:4;stroke-dasharray:none;stroke-opacity:1" />
      <rect
         ry="3.8742559"
         y="111.79167"
         x="460.375"
         height="15.497024"
         width="105.83333"
         id="rect929"
         style="opacity:1;fill:#0dd771;fill-opacity:1;stroke:none;stroke-width:0.52916664;stroke-linecap:round;stroke-linejoin:round;stroke-miterlimit:4;stroke-dasharray:none;stroke-opacity:1" />
    </g>
    <rect
       ry="2.6458333"
       y="238.73795"
       x="709.41644"
       height="26.458332"
       width="10.583374"
       id="rect935"
       style="opacity:1;fill:#000000;fill-opacity:1;stroke:#115d32;stroke-width:1.32291663;stroke-linecap:round;stroke-linejoin:round;stroke-miterlimit:4;stroke-dasharray:none;stroke-opacity:1" />
    <rect
       style="opacity:1;fill:#000000;fill-opacity:1;stroke:#115d32;stroke-width:1.32291663;stroke-linecap:round;stroke-linejoin:round;stroke-miterlimit:4;stroke-dasharray:none;stroke-opacity:1"
       id="rect937"
       width="10.583374"
       height="26.458332"
       x="794.08313"
       y="238.73795"
       ry="2.6458333" />
    <path
       sodipodi:nodetypes="sssssssss"
       inkscape:connector-curvature="0"
       id="path939"
       d="m 712.72376,111.73795 h 88.63541 c 1.83224,0 3.36685,1.3875 3.3073,3.10894 l -5.29167,152.95922 c -0.0596,1.72144 -1.47506,3.10893 -3.3073,3.10893 h -78.05207 c -1.83224,0 -3.24774,-1.38749 -3.30729,-3.10893 l -5.29167,-152.95922 c -0.0596,-1.72144 1.47505,-3.10894 3.30729,-3.10894 z"
       style="opacity:1;fill:#00bf5e;fill-opacity:1;stroke:#115d32;stroke-width:1.32291663;stroke-linecap:round;stroke-linejoin:round;stroke-miterlimit:4;stroke-dasharray:none;stroke-opacity:1" />
    <rect
       ry="2.6458333"
       y="95.862953"
       x="719.99982"
       height="10.583333"
       width="74.083336"
       id="rect941"
       style="opacity:1;fill:#04b058;fill-opacity:1;stroke:#115d32;stroke-width:1.32291663;stroke-linecap:round;stroke-linejoin:round;stroke-miterlimit:4;stroke-dasharray:none;stroke-opacity:1" />
    <rect
       ry="2.6458333"
       y="101.15461"
       x="709.41644"
       height="10.583333"
       width="95.25"
       id="rect943"
       style="opacity:1;fill:#0bbe62;fill-opacity:1;stroke:#115d32;stroke-width:1.32291663;stroke-linecap:round;stroke-linejoin:round;stroke-miterlimit:4;stroke-dasharray:none;stroke-opacity:1" />
    <rect
       ry="3.8742559"
       y="106.44628"
       x="704.12482"
       height="15.497024"
       width="105.83333"
       id="rect945"
       style="opacity:1;fill:#0dd771;fill-opacity:1;stroke:#115d32;stroke-width:1.32291663;stroke-linecap:round;stroke-linejoin:round;stroke-miterlimit:4;stroke-dasharray:none;stroke-opacity:1" />
    <g
       id="g1031"
       style="stroke:#049744;stroke-opacity:1">
      <path
         inkscape:connector-curvature="0"
         id="rect994"
         transform="matrix(0.26458333,0,0,0.26458333,0,85.333335)"
         d="m 3343.8184,585.85742 c -5.54,0 -10,4.46 -10,10 v 80 c 0,5.54 4.46,10 10,10 h 9.6582 l -3.459,-100 z"
         style="opacity:1;fill:none;fill-opacity:1;stroke:#049744;stroke-width:5;stroke-linecap:round;stroke-linejoin:round;stroke-miterlimit:4;stroke-dasharray:none;stroke-opacity:1" />
      <path
         transform="matrix(0.26458333,0,0,0.26458333,0,85.333335)"
         inkscape:connector-curvature="0"
         id="rect996"
         d="m 3677.6191,585.85742 -3.4589,100 h 9.6582 c 5.54,0 10,-4.46 10,-10 v -80 c 0,-5.54 -4.46,-10 -10,-10 z"
         style="opacity:1;fill:none;fill-opacity:1;stroke:#049744;stroke-width:5;stroke-linecap:round;stroke-linejoin:round;stroke-miterlimit:4;stroke-dasharray:none;stroke-opacity:1" />
      <path
         transform="matrix(0.26458333,0,0,0.26458333,0,85.333335)"
         inkscape:connector-curvature="0"
         id="rect1000"
         d="m 3383.8184,45.857422 c -5.54,0 -10,4.46 -10,10 v 10 h 280 v -10 c 0,-5.54 -4.46,-10 -10,-10 z"
         style="opacity:1;fill:none;fill-opacity:1;stroke:#049744;stroke-width:5;stroke-linecap:round;stroke-linejoin:round;stroke-miterlimit:4;stroke-dasharray:none;stroke-opacity:1" />
      <path
         inkscape:connector-curvature="0"
         id="rect989"
         transform="matrix(0.26458333,0,0,0.26458333,0,85.333335)"
         d="m 3343.8184,65.857422 c -5.54,0 -10,4.46 -10,10 v 10 h 360 v -10 c 0,-5.54 -4.46,-10 -10,-10 z"
         style="opacity:1;fill:none;fill-opacity:1;stroke:#049744;stroke-width:5;stroke-linecap:round;stroke-linejoin:round;stroke-miterlimit:4;stroke-dasharray:none;stroke-opacity:1" />
      <path
         transform="matrix(0.26458333,0,0,0.26458333,0,85.333335)"
         inkscape:connector-curvature="0"
         id="path998"
         d="m 3334.7461,144.42969 19.0723,551.29297 c 0.225,6.50623 5.575,11.75 12.5,11.75 h 295 c 6.925,0 12.2747,-5.24377 12.5,-11.75 l 19.0722,-551.29297 z"
         style="opacity:1;fill:none;fill-opacity:1;stroke:#049744;stroke-width:5;stroke-linecap:round;stroke-linejoin:round;stroke-miterlimit:4;stroke-dasharray:none;stroke-opacity:1" />
      <rect
         ry="3.8742559"
         y="108.0499"
         x="876.78094"
         height="15.497024"
         width="105.83333"
         id="rect991"
         style="opacity:1;fill:none;fill-opacity:1;stroke:#049744;stroke-width:1.32291663;stroke-linecap:round;stroke-linejoin:round;stroke-miterlimit:4;stroke-dasharray:none;stroke-opacity:1" />
    </g>
    <g
       id="g1062"
       style="stroke:#0a8740;stroke-opacity:0.97516342"
       transform="translate(-36.285719,414.2619)">
      <path
         inkscape:connector-curvature="0"
         id="rect1033"
         transform="matrix(0.26458333,0,0,0.26458333,0,85.333335)"
         d="m 4045.7305,45.826172 c -5.54,0 -10,4.46 -10,10 v 10 h -30 c -5.54,0 -10,4.46 -10,10 v 10 h -5.3575 c -8.1121,0 -14.6425,6.530435 -14.6425,14.642578 v 29.28711 c 0,8.11214 6.5304,14.64258 14.6425,14.64258 h 6.2852 l 15.2715,441.42773 h -6.1992 c -5.54,0 -10,4.46 -10,10 v 80 c 0,5.54 4.46,10 10,10 h 9.6582 l 0.3418,9.86524 c 0.2249,6.50623 5.5751,11.75 12.5,11.75 h 295 c 6.9252,0 12.2732,-5.24377 12.5,-11.75 l 0.3418,-9.86524 h 9.6582 c 5.54,0 10,-4.46 10,-10 v -80 c 0,-5.54 -4.46,-10 -10,-10 h -6.1993 l 15.2715,-441.42773 h 6.2852 c 8.1121,0 14.6426,-6.53044 14.6426,-14.64258 v -29.28711 c 0,-8.112143 -6.5305,-14.642578 -14.6426,-14.642578 h -5.3574 v -10 c 0,-5.54 -4.46,-10 -10,-10 h -30 v -10 c 0,-5.54 -4.46,-10 -10,-10 z"
         style="opacity:1;fill:none;fill-opacity:1;stroke:#0a8740;stroke-width:5;stroke-linecap:round;stroke-linejoin:round;stroke-miterlimit:4;stroke-dasharray:none;stroke-opacity:0.97516342" />
      <path
         inkscape:connector-curvature="0"
         id="path1046"
         d="m 1057.2037,108.04151 h 95.25"
         style="fill:none;fill-rule:evenodd;stroke:#0a8740;stroke-width:1.32291663;stroke-linecap:butt;stroke-linejoin:miter;stroke-miterlimit:4;stroke-dasharray:none;stroke-opacity:0.97516342" />
      <path
         inkscape:connector-curvature="0"
         id="path1048"
         d="m 1152.2082,123.53876 h -94.7591"
         style="fill:none;fill-rule:evenodd;stroke:#0a8740;stroke-width:1.32291663;stroke-linecap:butt;stroke-linejoin:miter;stroke-miterlimit:4;stroke-dasharray:none;stroke-opacity:0.97516342" />
      <path
         inkscape:connector-curvature="0"
         id="path1050"
         d="m 1067.787,102.74984 h 74.0833"
         style="fill:none;fill-rule:evenodd;stroke:#0a8740;stroke-width:1.32291663;stroke-linecap:butt;stroke-linejoin:miter;stroke-miterlimit:4;stroke-dasharray:none;stroke-opacity:0.97516342" />
      <path
         inkscape:connector-curvature="0"
         id="path1052"
         d="m 1061.4897,240.33317 0.9152,26.45833"
         style="fill:none;fill-rule:evenodd;stroke:#0a8740;stroke-width:1.32291663;stroke-linecap:butt;stroke-linejoin:miter;stroke-miterlimit:4;stroke-dasharray:none;stroke-opacity:0.97516342" />
      <path
         inkscape:connector-curvature="0"
         id="path1054"
         d="m 1148.1676,240.33317 -0.9152,26.45833"
         style="fill:none;fill-rule:evenodd;stroke:#0a8740;stroke-width:1.32291663;stroke-linecap:butt;stroke-linejoin:miter;stroke-miterlimit:4;stroke-dasharray:none;stroke-opacity:0.97516342" />
    </g>
    <rect
       ry="2.5985863"
       y="511.69049"
       x="1238.061"
       height="145.52084"
       width="2.6458333"
       id="rect1076"
       style="opacity:1;fill:none;fill-opacity:1;stroke:#26aee7;stroke-width:1.32291663;stroke-linecap:round;stroke-linejoin:round;stroke-miterlimit:4;stroke-dasharray:none;stroke-opacity:0.97516342" />
    <rect
       ry="1.3229166"
       y="657.2113"
       x="1230.1235"
       height="2.6458333"
       width="18.520845"
       id="rect1078"
       style="opacity:1;fill:none;fill-opacity:1;stroke:#7c694e;stroke-width:1.32291663;stroke-linecap:round;stroke-linejoin:round;stroke-miterlimit:4;stroke-dasharray:none;stroke-opacity:0.97516342" />
    <rect
       ry="1.3229166"
       y="659.85712"
       x="1222.186"
       height="2.6458333"
       width="34.395844"
       id="rect1080"
       style="opacity:1;fill:none;fill-opacity:1;stroke:#7c694e;stroke-width:1.32291663;stroke-linecap:round;stroke-linejoin:round;stroke-miterlimit:4;stroke-dasharray:none;stroke-opacity:0.97516342" />
    <rect
       ry="2.6458316"
       y="662.50299"
       x="1216.8943"
       height="5.2916632"
       width="44.979168"
       id="rect1082"
       style="opacity:1;fill:none;fill-opacity:1;stroke:#f6db0e;stroke-width:1.32291663;stroke-linecap:round;stroke-linejoin:round;stroke-miterlimit:4;stroke-dasharray:none;stroke-opacity:0.97516342" />
    <rect
       ry="2.5985868"
       y="511.69049"
       x="1236.7382"
       height="15.875"
       width="5.2916665"
       id="rect1084"
       style="opacity:1;fill:none;fill-opacity:1;stroke:#26aee7;stroke-width:1.32291663;stroke-linecap:round;stroke-linejoin:round;stroke-miterlimit:4;stroke-dasharray:none;stroke-opacity:0.97516342" />
    <g
       id="g1146"
       transform="translate(876.90476,415.77381)">
      <path
         inkscape:connector-curvature="0"
         id="rect1064"
         d="m 280.45833,111.45784 v 127.38085 c 0,1.43962 0.59002,2.59881 1.32292,2.59881 0.73289,0 1.32291,-1.15919 1.32291,-2.59881 V 111.45784 c -0.3766,0.21189 -0.81129,0.33383 -1.2759,0.33383 h -0.094 c -0.46461,0 -0.89929,-0.12194 -1.2759,-0.33383 z"
         style="opacity:1;fill:none;fill-opacity:1;stroke:#26aee7;stroke-width:1.32291663;stroke-linecap:round;stroke-linejoin:round;stroke-miterlimit:4;stroke-dasharray:none;stroke-opacity:0.97516342" />
      <rect
         ry="1.3229166"
         y="241.4375"
         x="272.52084"
         height="2.6458333"
         width="18.520845"
         id="rect1066"
         style="opacity:1;fill:none;fill-opacity:1;stroke:#7c694e;stroke-width:1.32291663;stroke-linecap:round;stroke-linejoin:round;stroke-miterlimit:4;stroke-dasharray:none;stroke-opacity:0.97516342" />
      <rect
         ry="1.3229166"
         y="244.08333"
         x="264.58331"
         height="2.6458333"
         width="34.395844"
         id="rect1068"
         style="opacity:1;fill:none;fill-opacity:1;stroke:#7c694e;stroke-width:1.32291663;stroke-linecap:round;stroke-linejoin:round;stroke-miterlimit:4;stroke-dasharray:none;stroke-opacity:0.97516342" />
      <rect
         ry="2.6458316"
         y="246.72917"
         x="259.29166"
         height="5.2916632"
         width="44.979168"
         id="rect1070"
         style="opacity:1;fill:none;fill-opacity:1;stroke:#f6db0e;stroke-width:1.32291663;stroke-linecap:round;stroke-linejoin:round;stroke-miterlimit:4;stroke-dasharray:none;stroke-opacity:0.97516342" />
      <rect
         ry="2.6458299"
         y="95.916672"
         x="279.13541"
         height="15.875"
         width="5.2916665"
         id="rect1087"
         style="opacity:1;fill:none;fill-opacity:1;stroke:#26aee7;stroke-width:1.32291663;stroke-linecap:round;stroke-linejoin:round;stroke-miterlimit:4;stroke-dasharray:none;stroke-opacity:0.97516342" />
    </g>
    <rect
       style="opacity:1;fill:none;fill-opacity:1;stroke:#26aee7;stroke-width:1.32291663;stroke-linecap:round;stroke-linejoin:round;stroke-miterlimit:4;stroke-dasharray:none;stroke-opacity:0.97516342"
       id="rect1096"
       width="68.791672"
       height="52.916664"
       x="898.07141"
       y="532.85718"
       ry="0" />
    <rect
       style="opacity:1;fill:none;fill-opacity:1;stroke:#26aee7;stroke-width:1.32291663;stroke-linecap:round;stroke-linejoin:round;stroke-miterlimit:4;stroke-dasharray:none;stroke-opacity:0.97516342"
       id="rect1098"
       width="15.875"
       height="15.875"
       x="985.38391"
       y="530.2113" />
    <rect
       style="opacity:1;fill:none;fill-opacity:1;stroke:#26aee7;stroke-width:1.32291663;stroke-linecap:round;stroke-linejoin:round;stroke-miterlimit:4;stroke-dasharray:none;stroke-opacity:0.97647059"
       id="rect1102"
       width="111.125"
       height="63.5"
       x="895.4256"
       y="601.6488" />
    <rect
       style="opacity:1;fill:none;fill-opacity:1;stroke:#26aee7;stroke-width:1.32291663;stroke-linecap:round;stroke-linejoin:round;stroke-miterlimit:4;stroke-dasharray:none;stroke-opacity:0.97647059"
       id="rect1104"
       width="44.979168"
       height="63.5"
       x="961.57141"
       y="601.6488" />
    <rect
       style="opacity:1;fill:none;fill-opacity:1;stroke:#26aee7;stroke-width:1.32291663;stroke-linecap:round;stroke-linejoin:round;stroke-miterlimit:4;stroke-dasharray:none;stroke-opacity:0.97647059"
       id="rect1106"
       width="13.229166"
       height="15.875"
       x="977.44641"
       y="601.6488" />
    <path
       style="opacity:1;fill:none;fill-opacity:1;stroke:#26aee7;stroke-width:1.32291663;stroke-linecap:round;stroke-linejoin:round;stroke-miterlimit:4;stroke-dasharray:none;stroke-opacity:0.97647059"
       d="m 927.17559,730.76548 h 105.83331 c 1.4658,0 2.7434,1.18329 2.6459,2.64583 l -1.0584,15.87501 c -0.097,1.46254 -1.18,2.64583 -2.6458,2.64583 H 928.23392 c -1.46579,0 -2.54832,-1.18329 -2.64583,-2.64583 l -1.05833,-15.87501 c -0.0975,-1.46254 1.18004,-2.64583 2.64583,-2.64583 z"
       id="rect1110"
       inkscape:connector-curvature="0"
       sodipodi:nodetypes="sssssssss" />
    <path
       style="opacity:1;fill:none;fill-opacity:1;stroke:#26aee7;stroke-width:1.32291663;stroke-linecap:round;stroke-linejoin:round;stroke-miterlimit:4;stroke-dasharray:none;stroke-opacity:0.97647059"
       d="m 930.87975,752.46131 h 98.42505 c 1.4658,0 2.7016,1.1811 2.6458,2.64583 l -2.1167,55.56251 c -0.056,1.46473 -1.18,2.64582 -2.6458,2.64582 h -94.19168 c -1.46579,0 -2.59003,-1.18109 -2.64583,-2.64582 l -2.11666,-55.56251 c -0.0558,-1.46473 1.18003,-2.64583 2.64582,-2.64583 z"
       id="rect1113"
       inkscape:connector-curvature="0"
       sodipodi:nodetypes="sssssssss" />
    <path
       sodipodi:nodetypes="sssssssss"
       inkscape:connector-curvature="0"
       id="path1116"
       d="m 961.57143,696.89881 h 105.83337 c 1.4658,0 2.7433,1.18329 2.6458,2.64583 l -1.0583,15.87501 c -0.097,1.46254 -1.1801,2.64583 -2.6458,2.64583 H 962.62976 c -1.46579,0 -2.54832,-1.18329 -2.64582,-2.64583 l -1.05834,-15.87501 c -0.0975,-1.46254 1.18004,-2.64583 2.64583,-2.64583 z"
       style="opacity:1;fill:none;fill-opacity:1;stroke:#26aee7;stroke-width:1.32291663;stroke-linecap:round;stroke-linejoin:round;stroke-miterlimit:4;stroke-dasharray:none;stroke-opacity:0.97647059" />
    <g
       id="g1158"
       transform="matrix(0.62110731,0,0,0.62110731,-263.92168,5.720592)"
       style="fill:#0dd771;fill-opacity:1;stroke:none;stroke-width:1.61002779;stroke-opacity:0.97516336">
      <path
         style="opacity:1;fill:#0dd771;fill-opacity:1;stroke:none;stroke-width:2.12993264;stroke-linecap:round;stroke-linejoin:round;stroke-miterlimit:4;stroke-dasharray:none;stroke-opacity:0.97516336"
         d="m 280.45833,111.45784 v 127.38085 c 0,1.43962 0.59002,2.59881 1.32292,2.59881 0.73289,0 1.32291,-1.15919 1.32291,-2.59881 V 111.45784 c -0.3766,0.21189 -0.81129,0.33383 -1.2759,0.33383 h -0.094 c -0.46461,0 -0.89929,-0.12194 -1.2759,-0.33383 z"
         id="path1148"
         inkscape:connector-curvature="0" />
      <rect
         style="opacity:1;fill:#0dd771;fill-opacity:1;stroke:none;stroke-width:2.12993264;stroke-linecap:round;stroke-linejoin:round;stroke-miterlimit:4;stroke-dasharray:none;stroke-opacity:0.97516336"
         id="rect1150"
         width="18.520845"
         height="2.6458333"
         x="272.52084"
         y="241.4375"
         ry="1.3229166" />
      <rect
         style="opacity:1;fill:#0dd771;fill-opacity:1;stroke:none;stroke-width:2.12993264;stroke-linecap:round;stroke-linejoin:round;stroke-miterlimit:4;stroke-dasharray:none;stroke-opacity:0.97516336"
         id="rect1152"
         width="34.395844"
         height="2.6458333"
         x="264.58331"
         y="244.08333"
         ry="1.3229166" />
      <rect
         style="opacity:1;fill:#0dd771;fill-opacity:1;stroke:none;stroke-width:2.12993264;stroke-linecap:round;stroke-linejoin:round;stroke-miterlimit:4;stroke-dasharray:none;stroke-opacity:0.97516336"
         id="rect1154"
         width="44.979168"
         height="5.2916632"
         x="259.29166"
         y="246.72917"
         ry="2.6458316" />
      <rect
         style="opacity:1;fill:#0dd771;fill-opacity:1;stroke:none;stroke-width:2.12993264;stroke-linecap:round;stroke-linejoin:round;stroke-miterlimit:4;stroke-dasharray:none;stroke-opacity:0.97516336"
         id="rect1156"
         width="5.2916665"
         height="15.875"
         x="279.13541"
         y="95.916672"
         ry="2.6458299" />
    </g>
    <g
       id="g1231"
       transform="matrix(0.31292517,0,0,0.31292517,-191.43259,86.470496)"
       style="stroke-width:3.19565225">
      <rect
         style="opacity:1;fill:#00a250;fill-opacity:1;stroke:none;stroke-width:1.69103253;stroke-linecap:round;stroke-linejoin:round;stroke-miterlimit:4;stroke-dasharray:none;stroke-opacity:1"
         id="rect1168"
         width="10.583374"
         height="26.458332"
         x="368.07339"
         y="561.34528"
         ry="2.6458333" />
      <rect
         ry="2.6458333"
         y="561.34528"
         x="452.74005"
         height="26.458332"
         width="10.583374"
         id="rect1170"
         style="opacity:1;fill:#00a250;fill-opacity:1;stroke:none;stroke-width:1.69103253;stroke-linecap:round;stroke-linejoin:round;stroke-miterlimit:4;stroke-dasharray:none;stroke-opacity:1" />
      <path
         style="opacity:1;fill:#0dd771;fill-opacity:1;stroke:none;stroke-width:1.69103253;stroke-linecap:round;stroke-linejoin:round;stroke-miterlimit:4;stroke-dasharray:none;stroke-opacity:1"
         d="m 371.38067,434.34526 h 88.63542 c 1.83223,0 3.36685,1.3875 3.3073,3.10894 l -5.29167,152.95922 c -0.0596,1.72144 -1.47506,3.10893 -3.3073,3.10893 h -78.05207 c -1.83224,0 -3.24774,-1.38749 -3.30729,-3.10893 L 368.07339,437.4542 c -0.0596,-1.72144 1.47505,-3.10894 3.30728,-3.10894 z"
         id="path1172"
         inkscape:connector-curvature="0"
         sodipodi:nodetypes="sssssssss" />
      <rect
         style="opacity:1;fill:#00a250;fill-opacity:1;stroke:none;stroke-width:1.69103253;stroke-linecap:round;stroke-linejoin:round;stroke-miterlimit:4;stroke-dasharray:none;stroke-opacity:1"
         id="rect1174"
         width="74.083336"
         height="10.583333"
         x="378.65674"
         y="418.47028"
         ry="2.6458333" />
      <rect
         style="opacity:1;fill:#0bbe62;fill-opacity:1;stroke:none;stroke-width:1.69103253;stroke-linecap:round;stroke-linejoin:round;stroke-miterlimit:4;stroke-dasharray:none;stroke-opacity:1"
         id="rect1176"
         width="95.25"
         height="10.583333"
         x="368.07339"
         y="423.76193"
         ry="2.6458333" />
      <rect
         style="opacity:1;fill:#05eb77;fill-opacity:1;stroke:none;stroke-width:1.69103253;stroke-linecap:round;stroke-linejoin:round;stroke-miterlimit:4;stroke-dasharray:none;stroke-opacity:1"
         id="rect1178"
         width="105.83333"
         height="15.497024"
         x="362.78174"
         y="429.05359"
         ry="3.8742559" />
    </g>
    <circle
       style="opacity:1;fill:#7fd6fa;fill-opacity:1;stroke:none;stroke-width:1.32291687;stroke-linecap:round;stroke-linejoin:round;stroke-miterlimit:4;stroke-dasharray:none;stroke-opacity:0.97647059"
       id="path1139"
       cx="162.52969"
       cy="196.45837"
       r="24.646341" />
    <rect
       ry="0"
       y="196.72008"
       x="145.25719"
       height="13.085232"
       width="17.010803"
       id="rect1184"
       style="opacity:1;fill:#0faaf4;fill-opacity:1;stroke:none;stroke-width:1.32291663;stroke-linecap:round;stroke-linejoin:round;stroke-miterlimit:4;stroke-dasharray:none;stroke-opacity:0.97516342" />
    <path
       inkscape:connector-curvature="0"
       id="path1182"
       d="m 151.7998,196.72008 v 3.92557 l 0.65426,-0.65426 0.65426,0.65426 0.65426,-0.65426 0.65426,0.65426 0.65426,-0.65426 0.65427,0.65426 v -3.92557 z"
       style="fill:#e0e5e7;fill-opacity:1;fill-rule:evenodd;stroke:none;stroke-width:1.32291663;stroke-linecap:butt;stroke-linejoin:miter;stroke-miterlimit:4;stroke-dasharray:none;stroke-opacity:0.97647059" />
    <rect
       style="opacity:1;fill:#0faaf4;fill-opacity:1;stroke:none;stroke-width:1.32291663;stroke-linecap:round;stroke-linejoin:round;stroke-miterlimit:4;stroke-dasharray:none;stroke-opacity:0.97516342"
       id="rect1196"
       width="17.010803"
       height="13.085232"
       x="154.02428"
       y="183.11143"
       ry="0" />
    <path
       style="fill:#e0e5e7;fill-opacity:1;fill-rule:evenodd;stroke:none;stroke-width:1.32291663;stroke-linecap:butt;stroke-linejoin:miter;stroke-miterlimit:4;stroke-dasharray:none;stroke-opacity:0.97647059"
       d="m 160.5669,183.11144 v 3.92557 l 0.65426,-0.65427 0.65426,0.65427 0.65426,-0.65427 0.65426,0.65427 0.65427,-0.65427 0.65426,0.65427 v -3.92557 z"
       id="path1198"
       inkscape:connector-curvature="0" />
    <rect
       ry="0"
       y="196.72008"
       x="162.7914"
       height="13.085232"
       width="17.010803"
       id="rect1202"
       style="opacity:1;fill:#0faaf4;fill-opacity:1;stroke:none;stroke-width:1.32291663;stroke-linecap:round;stroke-linejoin:round;stroke-miterlimit:4;stroke-dasharray:none;stroke-opacity:0.97516342" />
    <path
       inkscape:connector-curvature="0"
       id="path1204"
       d="m 169.33402,196.72008 v 3.92557 l 0.65426,-0.65426 0.65426,0.65426 0.65426,-0.65426 0.65426,0.65426 0.65426,-0.65426 0.65427,0.65426 v -3.92557 z"
       style="fill:#e0e5e7;fill-opacity:1;fill-rule:evenodd;stroke:none;stroke-width:1.32291663;stroke-linecap:butt;stroke-linejoin:miter;stroke-miterlimit:4;stroke-dasharray:none;stroke-opacity:0.97647059" />
  </g>
</svg>
