<?xml version="1.0" encoding="UTF-8" standalone="no"?>
<!-- Created with Inkscape (http://www.inkscape.org/) -->

<svg
   xmlns:dc="http://purl.org/dc/elements/1.1/"
   xmlns:cc="http://creativecommons.org/ns#"
   xmlns:rdf="http://www.w3.org/1999/02/22-rdf-syntax-ns#"
   xmlns:svg="http://www.w3.org/2000/svg"
   xmlns="http://www.w3.org/2000/svg"
   xmlns:sodipodi="http://sodipodi.sourceforge.net/DTD/sodipodi-0.dtd"
   xmlns:inkscape="http://www.inkscape.org/namespaces/inkscape"
   width="867.38922"
   height="599.05505"
   viewBox="0 0 229.49674 158.49999"
   version="1.1"
   id="svg4276"
   inkscape:version="0.92.2 5c3e80d, 2017-08-06"
   sodipodi:docname="hero-img.svg">
  <defs
     id="defs4270" />
  <sodipodi:namedview
     id="base"
     pagecolor="#ffffff"
     bordercolor="#666666"
     borderopacity="1.0"
     inkscape:pageopacity="0.0"
     inkscape:pageshadow="2"
     inkscape:zoom="0.12374369"
     inkscape:cx="136.30582"
     inkscape:cy="312.44254"
     inkscape:document-units="mm"
     inkscape:current-layer="layer1"
     showgrid="true"
     inkscape:measure-start="0,0"
     inkscape:measure-end="0,0"
     fit-margin-top="0"
     fit-margin-left="0"
     fit-margin-right="0"
     fit-margin-bottom="0"
     inkscape:window-width="1280"
     inkscape:window-height="756"
     inkscape:window-x="0"
     inkscape:window-y="0"
     inkscape:window-maximized="1"
     units="px"
     inkscape:snap-global="true"
     showguides="false">
    <inkscape:grid
       type="axonomgrid"
       id="grid4821"
       units="px"
       empspacing="15"
       visible="false"
       enabled="true"
       originx="-21.650636"
       originy="-29.000001" />
    <inkscape:grid
       type="axonomgrid"
       id="grid2273"
       units="mm"
       empspacing="5"
       visible="false"
       enabled="false" />
  </sodipodi:namedview>
  <metadata
     id="metadata4273">
    <rdf:RDF>
      <cc:Work
         rdf:about="">
        <dc:format>image/svg+xml</dc:format>
        <dc:type
           rdf:resource="http://purl.org/dc/dcmitype/StillImage" />
        <dc:title></dc:title>
      </cc:Work>
    </rdf:RDF>
  </metadata>
  <g
     inkscape:label="Layer 1"
     inkscape:groupmode="layer"
     id="layer1"
     transform="translate(-21.650635,-109.50001)"
     style="display:inline">
    <g
       id="g5050">
      <path
         sodipodi:nodetypes="ccccc"
         inkscape:connector-curvature="0"
         id="path4971"
         d="M 134.23394,134.5 251.14737,202 138.56406,267 21.650635,199.5 Z"
         style="fill:#3bd37f;fill-opacity:1;fill-rule:evenodd;stroke:none;stroke-width:0.26458332px;stroke-linecap:butt;stroke-linejoin:miter;stroke-opacity:1" />
      <path
         style="fill:#3db873;fill-opacity:1;fill-rule:evenodd;stroke:none;stroke-width:0.26458332px;stroke-linecap:butt;stroke-linejoin:miter;stroke-opacity:1"
         d="m 147.22432,142 -112.583304,65 12.990381,7.5 112.583303,-65 z"
         id="path5025"
         inkscape:connector-curvature="0"
         sodipodi:nodetypes="ccccc" />
      <path
         sodipodi:nodetypes="ccccc"
         inkscape:connector-curvature="0"
         id="path4989"
         d="m 173.20508,157 -112.583302,65 12.990381,7.5 112.583301,-65 z"
         style="fill:#3db873;fill-opacity:1;fill-rule:evenodd;stroke:none;stroke-width:0.26458332px;stroke-linecap:butt;stroke-linejoin:miter;stroke-opacity:1" />
      <path
         style="fill:#3db873;fill-opacity:1;fill-rule:evenodd;stroke:none;stroke-width:0.26458332px;stroke-linecap:butt;stroke-linejoin:miter;stroke-opacity:1"
         d="m 225.1666,187 -112.5833,65 12.99038,7.5 112.58331,-65 z"
         id="path4991"
         inkscape:connector-curvature="0"
         sodipodi:nodetypes="ccccc" />
      <path
         sodipodi:nodetypes="ccccc"
         inkscape:connector-curvature="0"
         id="path4993"
         d="m 199.18584,172 -112.5833,65 12.990381,7.5 112.583309,-65 z"
         style="fill:#3db873;fill-opacity:1;fill-rule:evenodd;stroke:none;stroke-width:0.26458332px;stroke-linecap:butt;stroke-linejoin:miter;stroke-opacity:1" />
    </g>
    <path
       style="fill:#928383;fill-opacity:1;fill-rule:evenodd;stroke:none;stroke-width:0.26458332px;stroke-linecap:butt;stroke-linejoin:miter;stroke-opacity:1"
       d="m 112.5833,206.99999 -38.971142,22.5 12.990383,7.5 38.971139,-22.5 z"
       id="path8739"
       inkscape:connector-curvature="0" />
    <path
       style="fill:#4d4d4d;fill-opacity:0.19607843;fill-rule:evenodd;stroke:none;stroke-width:0.26458332px;stroke-linecap:butt;stroke-linejoin:miter;stroke-opacity:1"
       d="m 160.2147,224.5 51.96152,-1e-5 L 251.14737,202 216.50635,182 Z"
       id="path5054"
       inkscape:connector-curvature="0"
       sodipodi:nodetypes="ccccc" />
    <g
       id="g9352"
       transform="translate(-6.0621777,-1.499996)">
      <path
         inkscape:connector-curvature="0"
         id="path9269"
         d="m 83.138438,167.99999 12.124354,7 v 6 l -0.866026,0.5 -12.124354,-7 v -6 z"
         style="fill:#d40000;fill-opacity:1;fill-rule:evenodd;stroke:none;stroke-width:0.26458332px;stroke-linecap:butt;stroke-linejoin:miter;stroke-opacity:1" />
      <path
         inkscape:connector-curvature="0"
         id="path8987"
         d="M 74.478184,170.99999 77.07626,169.5 l 2.598076,-1.5 2.598076,1.5 v 2.99999 l 15.588456,9 v 3 l -2.598076,1.5 L 82.272412,178.5 v 25.99999 l -2.598076,1.5 -2.598076,-1.5 v -29 l -2.598076,-1.5 z"
         style="display:inline;opacity:0.98999999;fill:#ececec;fill-opacity:1;fill-rule:evenodd;stroke:none;stroke-width:0.26458332px;stroke-linecap:butt;stroke-linejoin:miter;stroke-opacity:1" />
      <path
         inkscape:connector-curvature="0"
         id="path8989"
         d="m 81.406386,177.99999 15.588459,9 V 201 l -0.866026,0.49999 -15.588456,-9 v -15 z"
         style="fill:#ececec;fill-opacity:1;fill-rule:evenodd;stroke:none;stroke-width:0.26458332px;stroke-linecap:butt;stroke-linejoin:miter;stroke-opacity:1" />
      <path
         inkscape:connector-curvature="0"
         id="path4959"
         d="m 77.076261,172.5 2.59808,-1.5 -2.59808,-1.5 -2.59807,1.5 z"
         style="fill:#f2f2f2;fill-opacity:1;fill-rule:evenodd;stroke:none;stroke-width:0.26458332px;stroke-linecap:butt;stroke-linejoin:miter;stroke-opacity:1" />
      <path
         sodipodi:nodetypes="ccccc"
         inkscape:connector-curvature="0"
         id="path4941"
         d="m 82.272413,169.5 -2.59808,1.5 v 35 l 2.59808,-1.5 z"
         style="fill:#cccccc;fill-opacity:1;fill-rule:evenodd;stroke:none;stroke-width:0.26458332px;stroke-linecap:butt;stroke-linejoin:miter;stroke-opacity:1" />
      <path
         sodipodi:nodetypes="ccccc"
         inkscape:connector-curvature="0"
         id="path4935"
         d="m 82.272413,172.5 15.58846,9 -2.59808,1.5 -15.58846,-9 z"
         style="fill:#f2f2f2;fill-opacity:1;fill-rule:evenodd;stroke:none;stroke-width:0.26458332px;stroke-linecap:butt;stroke-linejoin:miter;stroke-opacity:1" />
      <path
         inkscape:connector-curvature="0"
         id="path4947"
         d="m 96.128823,187.5 -15.58846,-9 v 14 l 15.58846,9 z"
         style="fill:#ececec;fill-opacity:1;fill-rule:evenodd;stroke:none;stroke-width:0.26458332px;stroke-linecap:butt;stroke-linejoin:miter;stroke-opacity:1" />
      <path
         sodipodi:nodetypes="ccccc"
         inkscape:connector-curvature="0"
         id="path4939"
         d="m 95.262793,183 v 3 l 2.59808,-1.5 v -3 z"
         style="fill:#cccccc;fill-opacity:1;fill-rule:evenodd;stroke:none;stroke-width:0.26458332px;stroke-linecap:butt;stroke-linejoin:miter;stroke-opacity:1" />
      <path
         inkscape:connector-curvature="0"
         id="path4943"
         d="m 82.272413,169.5 -2.59808,-1.5 -2.59808,1.5 2.59808,1.5 z"
         style="fill:#f2f2f2;fill-opacity:1;fill-rule:evenodd;stroke:none;stroke-width:0.26458332px;stroke-linecap:butt;stroke-linejoin:miter;stroke-opacity:1" />
      <path
         inkscape:connector-curvature="0"
         id="path4949"
         d="m 96.128823,187.5 0.86601,-0.5 v 14 l -0.86601,0.5 z"
         style="fill:#cccccc;fill-opacity:1;fill-rule:evenodd;stroke:none;stroke-width:0.26458332px;stroke-linecap:butt;stroke-linejoin:miter;stroke-opacity:1" />
      <path
         inkscape:connector-curvature="0"
         id="path4951"
         d="m 96.994833,187 -15.58846,-9 -0.86601,0.5 15.58846,9 z"
         style="fill:#f2f2f2;fill-opacity:1;fill-rule:evenodd;stroke:none;stroke-width:0.26458332px;stroke-linecap:butt;stroke-linejoin:miter;stroke-opacity:1" />
      <path
         sodipodi:nodetypes="ccccc"
         inkscape:connector-curvature="0"
         id="path4961"
         d="m 92.664713,186.5 0.86603,0.5 v -3 l -0.86603,-0.5 z"
         style="fill:#808080;fill-opacity:1;fill-rule:evenodd;stroke:none;stroke-width:0.26458332px;stroke-linecap:butt;stroke-linejoin:miter;stroke-opacity:1" />
      <path
         style="fill:#808080;fill-opacity:1;fill-rule:evenodd;stroke:none;stroke-width:0.26458332px;stroke-linecap:butt;stroke-linejoin:miter;stroke-opacity:1"
         d="m 83.138433,181.00001 0.86603,0.5 v -3 l -0.86603,-0.5 z"
         id="path4963"
         inkscape:connector-curvature="0"
         sodipodi:nodetypes="ccccc" />
      <path
         sodipodi:nodetypes="ccccc"
         inkscape:connector-curvature="0"
         id="path4937"
         d="m 79.674333,174 v 3 l 15.58846,9 v -3 z"
         style="fill:#ececec;fill-opacity:1;fill-rule:evenodd;stroke:none;stroke-width:0.26458332px;stroke-linecap:butt;stroke-linejoin:miter;stroke-opacity:1" />
      <path
         inkscape:connector-curvature="0"
         id="path4945"
         d="m 77.076253,169.5 v 35 l 2.59808,1.5 v -35 z"
         style="fill:#ececec;fill-opacity:1;fill-rule:evenodd;stroke:none;stroke-width:0.26458332px;stroke-linecap:butt;stroke-linejoin:miter;stroke-opacity:1" />
      <path
         inkscape:connector-curvature="0"
         id="path4957"
         d="m 77.076261,172.5 -2.59807,-1.5 v 3 l 2.59807,1.5 z"
         style="fill:#ececec;fill-opacity:1;fill-rule:evenodd;stroke:none;stroke-width:0.26458332px;stroke-linecap:butt;stroke-linejoin:miter;stroke-opacity:1" />
      <path
         inkscape:connector-curvature="0"
         id="path4965"
         d="m 82.272413,174.5 12.12435,7 v -6 l -12.12435,-7 z"
         style="fill:#d40000;fill-opacity:1;fill-rule:evenodd;stroke:none;stroke-width:0.26458332px;stroke-linecap:butt;stroke-linejoin:miter;stroke-opacity:1" />
      <path
         inkscape:connector-curvature="0"
         id="path4967"
         d="m 82.272413,168.5 12.12434,7 0.86604,-0.5 -12.12435,-7 z"
         style="fill:#f10000;fill-opacity:1;fill-rule:evenodd;stroke:none;stroke-width:0.26458332px;stroke-linecap:butt;stroke-linejoin:miter;stroke-opacity:1" />
      <path
         inkscape:connector-curvature="0"
         id="path4969"
         d="m 94.396753,175.5 v 6 l 0.86604,-0.5 v -6 z"
         style="fill:#aa0000;fill-opacity:1;fill-rule:evenodd;stroke:none;stroke-width:0.26458332px;stroke-linecap:butt;stroke-linejoin:miter;stroke-opacity:1" />
    </g>
    <g
       id="g9418">
      <path
         inkscape:connector-curvature="0"
         id="path9127"
         d="m 86.602538,236.99999 v -19 l 3.464102,-2 3.464099,2 v 3 l 0.866027,-0.5 1.732049,6 v 1 l 2.598082,-3.5 0.86602,-0.5 1.732053,6 v 1 l 2.59808,-3.5 0.86602,-0.5 1.73206,6 v 1 l 2.59807,-3.5 0.86602,-0.5 1.73206,6 v 1 l 2.59807,-3.5 0.86603,-0.5 1.73205,6 v 1 l 2.59808,-3.5 0.86602,-0.5 1.73205,6 v 1 l 2.59808,-3.5 0.86602,-0.5 1.73205,6 v 1 l 2.59808,-3.5 0.86603,-0.5 1.73205,6 v 1 l 2.59807,-3.5 0.86603,-0.5 1.73205,6 v 15 l -0.86603,0.5 -4.33012,-2.5 v -1 l -0.86603,0.5 -4.33013,-2.5 v -1 l -0.86602,0.5 -4.33013,-2.5 v -1 l -0.86603,0.5 -4.33012,-2.5 v -1 l -0.86603,0.5 -4.33012,-2.5 v -1 l -0.86603,0.5 -4.33012,-2.5 v -1 l -0.86603,0.5 -4.33013,-2.5 v -1 l -0.86602,0.5 -4.330135,-2.5 v -1 l -0.866023,0.5 -4.330129,-2.5 v -1 l -0.866023,0.5 z"
         style="fill:#f2f2f2;fill-opacity:1;fill-rule:evenodd;stroke:none;stroke-width:0.26458332px;stroke-linecap:butt;stroke-linejoin:miter;stroke-opacity:1" />
      <path
         sodipodi:nodetypes="ccccc"
         inkscape:connector-curvature="0"
         id="path6648"
         d="m 90.06664,219.99999 3.464102,-2 v 19 l -3.464102,2 z"
         style="fill:#cccccc;fill-opacity:1;fill-rule:evenodd;stroke:none;stroke-width:0.26458332px;stroke-linecap:butt;stroke-linejoin:miter;stroke-opacity:1" />
      <path
         sodipodi:nodetypes="ccccc"
         inkscape:connector-curvature="0"
         id="path6646"
         d="m 90.06664,238.99999 v -19 l -3.464101,-2 v 19 z"
         style="fill:#ececec;fill-opacity:1;fill-rule:evenodd;stroke:none;stroke-width:0.26458332px;stroke-linecap:butt;stroke-linejoin:miter;stroke-opacity:1" />
      <path
         sodipodi:nodetypes="ccccc"
         inkscape:connector-curvature="0"
         id="path6650"
         d="m 86.602539,217.99999 3.464099,-2 3.464104,2 -3.464102,2 z"
         style="fill:#f2f2f2;fill-opacity:1;fill-rule:evenodd;stroke:none;stroke-width:0.26458332px;stroke-linecap:butt;stroke-linejoin:miter;stroke-opacity:1" />
      <path
         style="fill:#ececec;fill-opacity:1;fill-rule:evenodd;stroke:none;stroke-width:0.26458332px;stroke-linecap:butt;stroke-linejoin:miter;stroke-opacity:1"
         d="m 96.128818,242.49999 v -15 l 2.598079,-3.5 1.732053,6 v 15 z"
         id="path6574"
         inkscape:connector-curvature="0" />
      <path
         style="fill:#f2f2f2;fill-opacity:1;fill-rule:evenodd;stroke:none;stroke-width:0.26458332px;stroke-linecap:butt;stroke-linejoin:miter;stroke-opacity:1"
         d="m 98.726897,223.99999 0.86602,-0.5 1.732053,6 -0.86602,0.5 z"
         id="path6576"
         inkscape:connector-curvature="0" />
      <path
         style="fill:#cccccc;fill-opacity:1;fill-rule:evenodd;stroke:none;stroke-width:0.26458332px;stroke-linecap:butt;stroke-linejoin:miter;stroke-opacity:1"
         d="m 100.45895,229.99999 v 15 l 0.86602,-0.5 v -15 z"
         id="path6578"
         inkscape:connector-curvature="0" />
      <path
         inkscape:connector-curvature="0"
         id="path6582"
         d="m 90.932665,239.49999 v -15 l 2.598076,-3.5 1.73205,6 v 15 z"
         style="fill:#ececec;fill-opacity:1;fill-rule:evenodd;stroke:none;stroke-width:0.26458332px;stroke-linecap:butt;stroke-linejoin:miter;stroke-opacity:1" />
      <path
         inkscape:connector-curvature="0"
         id="path6584"
         d="m 93.530741,220.99999 0.866024,-0.5 1.732052,6 -0.866026,0.5 z"
         style="fill:#f2f2f2;fill-opacity:1;fill-rule:evenodd;stroke:none;stroke-width:0.26458332px;stroke-linecap:butt;stroke-linejoin:miter;stroke-opacity:1" />
      <path
         inkscape:connector-curvature="0"
         id="path6586"
         d="m 95.262791,226.99999 v 15 l 0.866026,-0.5 v -15 z"
         style="fill:#cccccc;fill-opacity:1;fill-rule:evenodd;stroke:none;stroke-width:0.26458332px;stroke-linecap:butt;stroke-linejoin:miter;stroke-opacity:1" />
      <path
         style="fill:#ececec;fill-opacity:1;fill-rule:evenodd;stroke:none;stroke-width:0.26458332px;stroke-linecap:butt;stroke-linejoin:miter;stroke-opacity:1"
         d="m 132.50189,263.5 v -15 l 2.59807,-3.5 1.73205,6 v 15 z"
         id="path6590"
         inkscape:connector-curvature="0" />
      <path
         style="fill:#f2f2f2;fill-opacity:1;fill-rule:evenodd;stroke:none;stroke-width:0.26458332px;stroke-linecap:butt;stroke-linejoin:miter;stroke-opacity:1"
         d="m 135.09996,245 0.86603,-0.5 1.73205,6 -0.86603,0.5 z"
         id="path6592"
         inkscape:connector-curvature="0" />
      <path
         style="fill:#cccccc;fill-opacity:1;fill-rule:evenodd;stroke:none;stroke-width:0.26458332px;stroke-linecap:butt;stroke-linejoin:miter;stroke-opacity:1"
         d="m 136.83201,251 v 15 l 0.86603,-0.5 v -15 z"
         id="path6594"
         inkscape:connector-curvature="0" />
      <path
         inkscape:connector-curvature="0"
         id="path6598"
         d="m 101.32497,245.49999 v -15 l 2.59808,-3.5 1.73205,6 v 15 z"
         style="fill:#ececec;fill-opacity:1;fill-rule:evenodd;stroke:none;stroke-width:0.26458332px;stroke-linecap:butt;stroke-linejoin:miter;stroke-opacity:1" />
      <path
         inkscape:connector-curvature="0"
         id="path6600"
         d="m 103.92305,226.99999 0.86602,-0.5 1.73206,6 -0.86603,0.5 z"
         style="fill:#f2f2f2;fill-opacity:1;fill-rule:evenodd;stroke:none;stroke-width:0.26458332px;stroke-linecap:butt;stroke-linejoin:miter;stroke-opacity:1" />
      <path
         inkscape:connector-curvature="0"
         id="path6602"
         d="m 105.6551,232.99999 v 15 l 0.86603,-0.5 v -15 z"
         style="fill:#cccccc;fill-opacity:1;fill-rule:evenodd;stroke:none;stroke-width:0.26458332px;stroke-linecap:butt;stroke-linejoin:miter;stroke-opacity:1" />
      <path
         inkscape:connector-curvature="0"
         id="path6606"
         d="m 127.30574,260.5 v -15 l 2.59807,-3.5 1.73205,6 v 15 z"
         style="fill:#ececec;fill-opacity:1;fill-rule:evenodd;stroke:none;stroke-width:0.26458332px;stroke-linecap:butt;stroke-linejoin:miter;stroke-opacity:1" />
      <path
         inkscape:connector-curvature="0"
         id="path6608"
         d="m 129.90381,242 0.86603,-0.5 1.73205,6 -0.86603,0.5 z"
         style="fill:#f2f2f2;fill-opacity:1;fill-rule:evenodd;stroke:none;stroke-width:0.26458332px;stroke-linecap:butt;stroke-linejoin:miter;stroke-opacity:1" />
      <path
         inkscape:connector-curvature="0"
         id="path6610"
         d="m 131.63586,248 v 15 l 0.86603,-0.5 v -15 z"
         style="fill:#cccccc;fill-opacity:1;fill-rule:evenodd;stroke:none;stroke-width:0.26458332px;stroke-linecap:butt;stroke-linejoin:miter;stroke-opacity:1" />
      <path
         style="fill:#ececec;fill-opacity:1;fill-rule:evenodd;stroke:none;stroke-width:0.26458332px;stroke-linecap:butt;stroke-linejoin:miter;stroke-opacity:1"
         d="m 122.10958,257.5 v -15 l 2.59808,-3.5 1.73205,6 v 15 z"
         id="path6614"
         inkscape:connector-curvature="0" />
      <path
         style="fill:#f2f2f2;fill-opacity:1;fill-rule:evenodd;stroke:none;stroke-width:0.26458332px;stroke-linecap:butt;stroke-linejoin:miter;stroke-opacity:1"
         d="m 124.70766,239 0.86602,-0.5 1.73205,6 -0.86602,0.5 z"
         id="path6616"
         inkscape:connector-curvature="0" />
      <path
         style="fill:#cccccc;fill-opacity:1;fill-rule:evenodd;stroke:none;stroke-width:0.26458332px;stroke-linecap:butt;stroke-linejoin:miter;stroke-opacity:1"
         d="m 126.43971,245 v 15 l 0.86602,-0.5 v -15 z"
         id="path6618"
         inkscape:connector-curvature="0" />
      <path
         inkscape:connector-curvature="0"
         id="path6622"
         d="m 116.91343,254.5 v -15 l 2.59808,-3.5 1.73205,6 v 15 z"
         style="fill:#ececec;fill-opacity:1;fill-rule:evenodd;stroke:none;stroke-width:0.26458332px;stroke-linecap:butt;stroke-linejoin:miter;stroke-opacity:1" />
      <path
         inkscape:connector-curvature="0"
         id="path6624"
         d="m 119.51151,236 0.86602,-0.5 1.73205,6 -0.86602,0.5 z"
         style="fill:#f2f2f2;fill-opacity:1;fill-rule:evenodd;stroke:none;stroke-width:0.26458332px;stroke-linecap:butt;stroke-linejoin:miter;stroke-opacity:1" />
      <path
         inkscape:connector-curvature="0"
         id="path6626"
         d="m 121.24356,242 v 15 l 0.86602,-0.5 v -15 z"
         style="fill:#cccccc;fill-opacity:1;fill-rule:evenodd;stroke:none;stroke-width:0.26458332px;stroke-linecap:butt;stroke-linejoin:miter;stroke-opacity:1" />
      <path
         style="fill:#ececec;fill-opacity:1;fill-rule:evenodd;stroke:none;stroke-width:0.26458332px;stroke-linecap:butt;stroke-linejoin:miter;stroke-opacity:1"
         d="m 111.71728,251.5 v -15 l 2.59807,-3.5 1.73206,6 v 15 z"
         id="path6630"
         inkscape:connector-curvature="0" />
      <path
         style="fill:#f2f2f2;fill-opacity:1;fill-rule:evenodd;stroke:none;stroke-width:0.26458332px;stroke-linecap:butt;stroke-linejoin:miter;stroke-opacity:1"
         d="m 114.31535,233 0.86603,-0.5 1.73205,6 -0.86603,0.5 z"
         id="path6632"
         inkscape:connector-curvature="0" />
      <path
         style="fill:#cccccc;fill-opacity:1;fill-rule:evenodd;stroke:none;stroke-width:0.26458332px;stroke-linecap:butt;stroke-linejoin:miter;stroke-opacity:1"
         d="m 116.0474,239 v 15 l 0.86603,-0.5 v -15 z"
         id="path6634"
         inkscape:connector-curvature="0" />
      <path
         inkscape:connector-curvature="0"
         id="path6638"
         d="m 106.52113,248.5 v -15 l 2.59807,-3.5 1.73205,6 v 15 z"
         style="fill:#ececec;fill-opacity:1;fill-rule:evenodd;stroke:none;stroke-width:0.26458332px;stroke-linecap:butt;stroke-linejoin:miter;stroke-opacity:1" />
      <path
         inkscape:connector-curvature="0"
         id="path6640"
         d="m 109.1192,230 0.86603,-0.5 1.73205,6 -0.86603,0.5 z"
         style="fill:#f2f2f2;fill-opacity:1;fill-rule:evenodd;stroke:none;stroke-width:0.26458332px;stroke-linecap:butt;stroke-linejoin:miter;stroke-opacity:1" />
      <path
         inkscape:connector-curvature="0"
         id="path6642"
         d="m 110.85125,236 v 15 l 0.86603,-0.5 v -15 z"
         style="fill:#cccccc;fill-opacity:1;fill-rule:evenodd;stroke:none;stroke-width:0.26458332px;stroke-linecap:butt;stroke-linejoin:miter;stroke-opacity:1" />
    </g>
    <g
       id="g9385">
      <path
         inkscape:connector-curvature="0"
         id="path9061"
         d="M 23.382686,200.5 V 185.49999 L 25.980763,182 l 0.866025,-0.50001 1.732051,6 V 188.5 l 2.598076,-3.50001 0.866025,-0.5 1.732051,6 v 1 l 2.598076,-3.5 0.866026,-0.5 1.732051,6 v 1 l 2.598076,-3.5 0.866026,-0.5 1.73205,6.00001 v 0.99999 L 46.765372,194 l 0.866026,-0.50001 1.73205,6 V 200.5 l 2.598076,-3.50001 0.866026,-0.49999 1.73205,5.99999 v 1 l 2.598076,-3.5 0.866026,-0.5 1.73205,6 v 1 l 2.598078,-3.5 0.866024,-0.5 1.732052,6 v 1 l 2.598076,-3.5 0.866024,-0.5 1.732052,6 v -3 l 3.4641,-2 3.464102,2 v 19 l -3.464102,2 -3.4641,-2 v -1 l -0.866026,0.5 -4.330126,-2.5 v -1 l -0.866026,0.5 -4.330128,-2.5 v -1 l -0.866024,0.5 -4.330128,-2.5 v -1 l -0.866024,0.5 -4.330128,-2.5 v -1 L 48.497424,215 44.167296,212.49999 v -1 l -0.866027,0.5 -4.330125,-2.5 v -1 l -0.866026,0.5 -4.330127,-2.5 v -1 l -0.866025,0.5 -4.330127,-2.5 v -1 l -0.866026,0.5 z"
         style="display:inline;fill:#f2f2f2;fill-opacity:1;fill-rule:evenodd;stroke:none;stroke-width:0.26458332px;stroke-linecap:butt;stroke-linejoin:miter;stroke-opacity:1" />
      <path
         inkscape:connector-curvature="0"
         id="path6499"
         d="m 28.578839,203.49999 v -15 l 2.598076,-3.5 1.73205,6 v 15 z"
         style="fill:#ececec;fill-opacity:1;fill-rule:evenodd;stroke:none;stroke-width:0.26458332px;stroke-linecap:butt;stroke-linejoin:miter;stroke-opacity:1" />
      <path
         inkscape:connector-curvature="0"
         id="path6501"
         d="m 31.176915,184.99999 0.866024,-0.5 1.732052,6 -0.866026,0.5 z"
         style="fill:#f2f2f2;fill-opacity:1;fill-rule:evenodd;stroke:none;stroke-width:0.26458332px;stroke-linecap:butt;stroke-linejoin:miter;stroke-opacity:1" />
      <path
         inkscape:connector-curvature="0"
         id="path6503"
         d="m 32.908965,190.99999 v 15 l 0.866026,-0.5 v -15 z"
         style="fill:#cccccc;fill-opacity:1;fill-rule:evenodd;stroke:none;stroke-width:0.26458332px;stroke-linecap:butt;stroke-linejoin:miter;stroke-opacity:1" />
      <path
         style="fill:#ececec;fill-opacity:1;fill-rule:evenodd;stroke:none;stroke-width:0.26458332px;stroke-linecap:butt;stroke-linejoin:miter;stroke-opacity:1"
         d="m 23.382686,200.49999 v -15 l 2.598076,-3.5 1.73205,6 v 15 z"
         id="path6510"
         inkscape:connector-curvature="0" />
      <path
         style="fill:#f2f2f2;fill-opacity:1;fill-rule:evenodd;stroke:none;stroke-width:0.26458332px;stroke-linecap:butt;stroke-linejoin:miter;stroke-opacity:1"
         d="m 25.980762,181.99999 0.866024,-0.5 1.732052,6 -0.866026,0.5 z"
         id="path6512"
         inkscape:connector-curvature="0" />
      <path
         style="fill:#cccccc;fill-opacity:1;fill-rule:evenodd;stroke:none;stroke-width:0.26458332px;stroke-linecap:butt;stroke-linejoin:miter;stroke-opacity:1"
         d="m 27.712812,187.99999 v 15 l 0.866026,-0.5 v -15 z"
         id="path6514"
         inkscape:connector-curvature="0" />
      <path
         inkscape:connector-curvature="0"
         id="path6518"
         d="m 64.951906,224.5 v -15 l 2.598076,-3.5 1.73205,6 v 15 z"
         style="fill:#ececec;fill-opacity:1;fill-rule:evenodd;stroke:none;stroke-width:0.26458332px;stroke-linecap:butt;stroke-linejoin:miter;stroke-opacity:1" />
      <path
         inkscape:connector-curvature="0"
         id="path6520"
         d="m 67.549982,206 0.866024,-0.5 1.732052,6 -0.866026,0.5 z"
         style="fill:#f2f2f2;fill-opacity:1;fill-rule:evenodd;stroke:none;stroke-width:0.26458332px;stroke-linecap:butt;stroke-linejoin:miter;stroke-opacity:1" />
      <path
         inkscape:connector-curvature="0"
         id="path6522"
         d="m 69.282032,212 v 15 l 0.866026,-0.5 v -15 z"
         style="fill:#cccccc;fill-opacity:1;fill-rule:evenodd;stroke:none;stroke-width:0.26458332px;stroke-linecap:butt;stroke-linejoin:miter;stroke-opacity:1" />
      <path
         style="fill:#ececec;fill-opacity:1;fill-rule:evenodd;stroke:none;stroke-width:0.26458332px;stroke-linecap:butt;stroke-linejoin:miter;stroke-opacity:1"
         d="m 33.774992,206.49999 v -15 l 2.598076,-3.5 1.73205,6 v 15 z"
         id="path6526"
         inkscape:connector-curvature="0" />
      <path
         style="fill:#f2f2f2;fill-opacity:1;fill-rule:evenodd;stroke:none;stroke-width:0.26458332px;stroke-linecap:butt;stroke-linejoin:miter;stroke-opacity:1"
         d="m 36.373068,187.99999 0.866024,-0.5 1.732052,6 -0.866026,0.5 z"
         id="path6528"
         inkscape:connector-curvature="0" />
      <path
         style="fill:#cccccc;fill-opacity:1;fill-rule:evenodd;stroke:none;stroke-width:0.26458332px;stroke-linecap:butt;stroke-linejoin:miter;stroke-opacity:1"
         d="m 38.105118,193.99999 v 15 l 0.866026,-0.5 v -15 z"
         id="path6530"
         inkscape:connector-curvature="0" />
      <path
         style="fill:#ececec;fill-opacity:1;fill-rule:evenodd;stroke:none;stroke-width:0.26458332px;stroke-linecap:butt;stroke-linejoin:miter;stroke-opacity:1"
         d="m 59.755754,221.5 v -15 l 2.598076,-3.5 1.73205,6 v 15 z"
         id="path6534"
         inkscape:connector-curvature="0" />
      <path
         style="fill:#f2f2f2;fill-opacity:1;fill-rule:evenodd;stroke:none;stroke-width:0.26458332px;stroke-linecap:butt;stroke-linejoin:miter;stroke-opacity:1"
         d="m 62.35383,203 0.866024,-0.5 1.732052,6 -0.866026,0.5 z"
         id="path6536"
         inkscape:connector-curvature="0" />
      <path
         style="fill:#cccccc;fill-opacity:1;fill-rule:evenodd;stroke:none;stroke-width:0.26458332px;stroke-linecap:butt;stroke-linejoin:miter;stroke-opacity:1"
         d="m 64.08588,209 v 15 l 0.866026,-0.5 v -15 z"
         id="path6538"
         inkscape:connector-curvature="0" />
      <path
         inkscape:connector-curvature="0"
         id="path6542"
         d="m 54.559601,218.5 v -15 l 2.598076,-3.5 1.73205,6 v 15 z"
         style="fill:#ececec;fill-opacity:1;fill-rule:evenodd;stroke:none;stroke-width:0.26458332px;stroke-linecap:butt;stroke-linejoin:miter;stroke-opacity:1" />
      <path
         inkscape:connector-curvature="0"
         id="path6544"
         d="m 57.157677,200 0.866024,-0.5 1.732052,6 -0.866026,0.5 z"
         style="fill:#f2f2f2;fill-opacity:1;fill-rule:evenodd;stroke:none;stroke-width:0.26458332px;stroke-linecap:butt;stroke-linejoin:miter;stroke-opacity:1" />
      <path
         inkscape:connector-curvature="0"
         id="path6546"
         d="m 58.889727,206 v 15 l 0.866026,-0.5 v -15 z"
         style="fill:#cccccc;fill-opacity:1;fill-rule:evenodd;stroke:none;stroke-width:0.26458332px;stroke-linecap:butt;stroke-linejoin:miter;stroke-opacity:1" />
      <path
         style="fill:#ececec;fill-opacity:1;fill-rule:evenodd;stroke:none;stroke-width:0.26458332px;stroke-linecap:butt;stroke-linejoin:miter;stroke-opacity:1"
         d="m 49.363449,215.49999 v -15 l 2.598076,-3.5 1.73205,6 v 15 z"
         id="path6550"
         inkscape:connector-curvature="0" />
      <path
         style="fill:#f2f2f2;fill-opacity:1;fill-rule:evenodd;stroke:none;stroke-width:0.26458332px;stroke-linecap:butt;stroke-linejoin:miter;stroke-opacity:1"
         d="m 51.961525,196.99999 0.866024,-0.5 1.732052,6 -0.866026,0.5 z"
         id="path6552"
         inkscape:connector-curvature="0" />
      <path
         style="fill:#cccccc;fill-opacity:1;fill-rule:evenodd;stroke:none;stroke-width:0.26458332px;stroke-linecap:butt;stroke-linejoin:miter;stroke-opacity:1"
         d="m 53.693575,202.99999 v 15 l 0.866026,-0.5 v -15 z"
         id="path6554"
         inkscape:connector-curvature="0" />
      <path
         inkscape:connector-curvature="0"
         id="path6558"
         d="m 44.167297,212.49999 v -15 l 2.598076,-3.5 1.73205,6 v 15 z"
         style="fill:#ececec;fill-opacity:1;fill-rule:evenodd;stroke:none;stroke-width:0.26458332px;stroke-linecap:butt;stroke-linejoin:miter;stroke-opacity:1" />
      <path
         inkscape:connector-curvature="0"
         id="path6560"
         d="m 46.765373,193.99999 0.866024,-0.5 1.732052,6 -0.866026,0.5 z"
         style="fill:#f2f2f2;fill-opacity:1;fill-rule:evenodd;stroke:none;stroke-width:0.26458332px;stroke-linecap:butt;stroke-linejoin:miter;stroke-opacity:1" />
      <path
         inkscape:connector-curvature="0"
         id="path6562"
         d="m 48.497423,199.99999 v 15 l 0.866026,-0.5 v -15 z"
         style="fill:#cccccc;fill-opacity:1;fill-rule:evenodd;stroke:none;stroke-width:0.26458332px;stroke-linecap:butt;stroke-linejoin:miter;stroke-opacity:1" />
      <path
         style="fill:#ececec;fill-opacity:1;fill-rule:evenodd;stroke:none;stroke-width:0.26458332px;stroke-linecap:butt;stroke-linejoin:miter;stroke-opacity:1"
         d="m 38.971144,209.5 v -15 l 2.598076,-3.5 1.73205,6 v 15 z"
         id="path6566"
         inkscape:connector-curvature="0" />
      <path
         style="fill:#f2f2f2;fill-opacity:1;fill-rule:evenodd;stroke:none;stroke-width:0.26458332px;stroke-linecap:butt;stroke-linejoin:miter;stroke-opacity:1"
         d="m 41.56922,191 0.866024,-0.5 1.732052,6 -0.866026,0.5 z"
         id="path6568"
         inkscape:connector-curvature="0" />
      <path
         style="fill:#cccccc;fill-opacity:1;fill-rule:evenodd;stroke:none;stroke-width:0.26458332px;stroke-linecap:butt;stroke-linejoin:miter;stroke-opacity:1"
         d="m 43.30127,197 v 15 l 0.866026,-0.5 v -15 z"
         id="path6570"
         inkscape:connector-curvature="0" />
      <path
         style="fill:#cccccc;fill-opacity:1;fill-rule:evenodd;stroke:none;stroke-width:0.26458332px;stroke-linecap:butt;stroke-linejoin:miter;stroke-opacity:1"
         d="m 73.612159,210.49999 3.464102,-2 v 19 l -3.464102,2 z"
         id="path6657"
         inkscape:connector-curvature="0"
         sodipodi:nodetypes="ccccc" />
      <path
         style="fill:#ececec;fill-opacity:1;fill-rule:evenodd;stroke:none;stroke-width:0.26458332px;stroke-linecap:butt;stroke-linejoin:miter;stroke-opacity:1"
         d="m 73.612159,229.49999 v -19 l -3.464101,-2 v 19 z"
         id="path6659"
         inkscape:connector-curvature="0"
         sodipodi:nodetypes="ccccc" />
      <path
         style="fill:#f2f2f2;fill-opacity:1;fill-rule:evenodd;stroke:none;stroke-width:0.26458332px;stroke-linecap:butt;stroke-linejoin:miter;stroke-opacity:1"
         d="m 70.148058,208.49999 3.464099,-2 3.464104,2 -3.464102,2 z"
         id="path6661"
         inkscape:connector-curvature="0"
         sodipodi:nodetypes="ccccc" />
    </g>
    <path
       sodipodi:nodetypes="ccccc"
       inkscape:connector-curvature="0"
       id="path4883"
       d="M 151.55444,109.50001 95.262793,142 160.21469,179.50001 216.50634,147 Z"
       style="opacity:0.98999999;fill:#03a9f4;fill-opacity:1;fill-rule:evenodd;stroke:none;stroke-width:0.5;stroke-linecap:butt;stroke-linejoin:miter;stroke-miterlimit:4;stroke-dasharray:none;stroke-opacity:1" />
    <path
       inkscape:connector-curvature="0"
       id="path4885"
       d="m 95.262793,142 v 45 l 64.951897,37.5 v -44.99999 z"
       style="fill:#039be5;fill-opacity:1;fill-rule:evenodd;stroke:none;stroke-width:0.26458332px;stroke-linecap:butt;stroke-linejoin:miter;stroke-opacity:1" />
    <path
       sodipodi:nodetypes="ccccc"
       inkscape:connector-curvature="0"
       id="path4887"
       d="M 160.21469,179.50001 V 224.5 L 216.50634,192 v -45 z"
       style="fill:#0288d1;fill-opacity:1;fill-rule:evenodd;stroke:none;stroke-width:0.26458332px;stroke-linecap:butt;stroke-linejoin:miter;stroke-opacity:1" />
    <path
       sodipodi:nodetypes="ccccc"
       inkscape:connector-curvature="0"
       id="path4889"
       d="m 121.24355,202 v -35 l 12.99038,7.5 v 35 z"
       style="fill:#ff5252;fill-opacity:1;fill-rule:evenodd;stroke:none;stroke-width:0.26458332px;stroke-linecap:butt;stroke-linejoin:miter;stroke-opacity:1" />
    <path
       inkscape:connector-curvature="0"
       id="path4891"
       d="m 116.91342,164.5 v 15 L 99.592923,169.50001 V 154.5 Z"
       style="fill:#b3e5fc;fill-opacity:1;fill-rule:evenodd;stroke:none;stroke-width:0.26458332px;stroke-linecap:butt;stroke-linejoin:miter;stroke-opacity:1" />
    <path
       inkscape:connector-curvature="0"
       id="path4893"
       d="m 138.56407,177 17.3205,10 v 15 l -17.3205,-10 z"
       style="fill:#b3e5fc;fill-opacity:1;fill-rule:evenodd;stroke:none;stroke-width:0.26458332px;stroke-linecap:butt;stroke-linejoin:miter;stroke-opacity:1" />
    <path
       style="fill:#b3b3b3;fill-opacity:1;fill-rule:evenodd;stroke:none;stroke-width:0.26458332px;stroke-linecap:butt;stroke-linejoin:miter;stroke-opacity:1"
       d="M 121.24356,191.99999 116.91343,194.5 v 4.99999 l -4.33013,2.5 v 5 l 12.99038,7.5 8.66026,-5 v -10 z"
       id="path9129"
       inkscape:connector-curvature="0" />
    <path
       inkscape:connector-curvature="0"
       id="path4895"
       d="m 134.23393,199.5 -12.99038,-7.5 -4.33013,2.5 12.99038,7.5 z"
       style="fill:#cccccc;fill-opacity:1;fill-rule:evenodd;stroke:none;stroke-width:0.26458332px;stroke-linecap:butt;stroke-linejoin:miter;stroke-opacity:1" />
    <path
       inkscape:connector-curvature="0"
       id="path4897"
       d="m 129.9038,202 v 5 l 4.33013,-2.5 v -5 z"
       style="fill:#999999;fill-opacity:1;fill-rule:evenodd;stroke:none;stroke-width:0.26458332px;stroke-linecap:butt;stroke-linejoin:miter;stroke-opacity:1" />
    <path
       inkscape:connector-curvature="0"
       id="path4899"
       d="m 116.91342,194.5 12.99038,7.5 v 5 l -12.99038,-7.5 z"
       style="fill:#b3b3b3;fill-opacity:1;fill-rule:evenodd;stroke:none;stroke-width:0.26458332px;stroke-linecap:butt;stroke-linejoin:miter;stroke-opacity:1" />
    <path
       style="fill:#cccccc;fill-opacity:1;fill-rule:evenodd;stroke:none;stroke-width:0.26458332px;stroke-linecap:butt;stroke-linejoin:miter;stroke-opacity:1"
       d="m 129.9038,207 -12.99038,-7.5 -4.33013,2.5 12.99038,7.5 z"
       id="path4901"
       inkscape:connector-curvature="0" />
    <path
       style="fill:#999999;fill-opacity:1;fill-rule:evenodd;stroke:none;stroke-width:0.26458332px;stroke-linecap:butt;stroke-linejoin:miter;stroke-opacity:1"
       d="m 125.57367,209.5 v 5 l 4.33013,-2.5 v -5 z"
       id="path4903"
       inkscape:connector-curvature="0" />
    <path
       style="fill:#b3b3b3;fill-opacity:1;fill-rule:evenodd;stroke:none;stroke-width:0.26458332px;stroke-linecap:butt;stroke-linejoin:miter;stroke-opacity:1"
       d="m 112.58329,202 12.99038,7.5 v 5 L 112.58329,207 Z"
       id="path4905"
       inkscape:connector-curvature="0" />
    <path
       inkscape:connector-curvature="0"
       id="path4907"
       d="m 129.9038,207 v 5 l 4.33013,-2.5 v -5 z"
       style="fill:#999999;fill-opacity:1;fill-rule:evenodd;stroke:none;stroke-width:0.26458332px;stroke-linecap:butt;stroke-linejoin:miter;stroke-opacity:1" />
    <path
       inkscape:connector-curvature="0"
       id="path4909"
       d="m 116.91342,129.5 12.99038,-7.5 64.95191,37.5 -12.99038,7.5 z"
       style="fill:#81d4fa;fill-opacity:1;fill-rule:evenodd;stroke:none;stroke-width:0.26458332px;stroke-linecap:butt;stroke-linejoin:miter;stroke-opacity:1" />
    <path
       style="fill:#4fc3f7;fill-opacity:1;fill-rule:evenodd;stroke:none;stroke-width:0.26458332px;stroke-linecap:butt;stroke-linejoin:miter;stroke-opacity:1"
       d="m 194.85571,159.50001 -12.99038,7.5 v 20 l 0.86603,-1.5 0.86601,0.5 0.86603,-1.5 0.86604,0.5 0.86601,-1.5 0.86603,0.5 0.86603,-1.5 0.86601,0.5 0.86604,-1.5 0.86603,0.5 0.86601,-1.5 0.86603,0.5 0.86604,-1.5 0.866,0.5 0.86604,-1.5 z"
       id="path4917"
       inkscape:connector-curvature="0" />
    <path
       style="fill:#ffe680;fill-opacity:1;fill-rule:evenodd;stroke:none;stroke-width:0.26458332px;stroke-linecap:butt;stroke-linejoin:miter;stroke-opacity:1"
       d="m 132.50188,185.50001 c -0.16667,-0.28868 -0.57735,-0.66667 -0.86603,-0.5 -0.28867,0.16667 -0.16667,0.71133 0,1 0.16667,0.28868 0.57735,0.66667 0.86603,0.5 0.28867,-0.16667 0.16667,-0.71133 0,-1 z"
       id="path4927"
       inkscape:connector-curvature="0"
       sodipodi:nodetypes="aaaaa" />
    <path
       style="fill:#999999;fill-opacity:1;fill-rule:evenodd;stroke:none;stroke-width:0.26458332px;stroke-linecap:butt;stroke-linejoin:miter;stroke-opacity:1"
       d="m 134.23394,199.49999 -4.33013,2.5 v 5 l -4.33013,2.5 v 5 l 8.66026,-5 z"
       id="path9131"
       inkscape:connector-curvature="0" />
    <g
       id="g2318"
       transform="translate(2.1650677,2.2500045)">
      <path
         sodipodi:nodetypes="ccccc"
         inkscape:connector-curvature="0"
         id="path2279"
         d="m 177.96821,200.74999 -5.19616,3 v 3 l 5.19616,-3 z"
         style="fill:#000000;fill-opacity:0.29411765;fill-rule:evenodd;stroke:none;stroke-width:0.26458332px;stroke-linecap:butt;stroke-linejoin:miter;stroke-opacity:1" />
      <path
         style="fill:#000000;fill-opacity:0.09803922;fill-rule:evenodd;stroke:none;stroke-width:0.26458332px;stroke-linecap:butt;stroke-linejoin:miter;stroke-opacity:1"
         d="m 172.77207,203.74999 -5.19616,3 v 3 l 5.19616,-3 z"
         id="path2281"
         inkscape:connector-curvature="0"
         sodipodi:nodetypes="ccccc" />
      <path
         sodipodi:nodetypes="ccccc"
         inkscape:connector-curvature="0"
         id="path2283"
         d="m 175.37014,199.24999 -5.19616,3 v 3 l 5.19616,-3 z"
         style="fill:#000000;fill-opacity:0.17647059;fill-rule:evenodd;stroke:none;stroke-width:0.26458332px;stroke-linecap:butt;stroke-linejoin:miter;stroke-opacity:1" />
    </g>
    <g
       id="g2304"
       transform="translate(30.7439,-30.749997)">
      <path
         style="fill:#000000;fill-opacity:0.29411765;fill-rule:evenodd;stroke:none;stroke-width:0.26458332px;stroke-linecap:butt;stroke-linejoin:miter;stroke-opacity:1"
         d="m 177.96821,200.74999 -5.19616,3 v 3 l 5.19616,-3 z"
         id="path2298"
         inkscape:connector-curvature="0"
         sodipodi:nodetypes="ccccc" />
      <path
         sodipodi:nodetypes="ccccc"
         inkscape:connector-curvature="0"
         id="path2300"
         d="m 172.77207,203.74999 -5.19616,3 v 3 l 5.19616,-3 z"
         style="fill:#000000;fill-opacity:0.09803922;fill-rule:evenodd;stroke:none;stroke-width:0.26458332px;stroke-linecap:butt;stroke-linejoin:miter;stroke-opacity:1" />
      <path
         style="fill:#000000;fill-opacity:0.17647059;fill-rule:evenodd;stroke:none;stroke-width:0.26458332px;stroke-linecap:butt;stroke-linejoin:miter;stroke-opacity:1"
         d="m 175.37014,199.24999 -5.19616,3 v 3 l 5.19616,-3 z"
         id="path2302"
         inkscape:connector-curvature="0"
         sodipodi:nodetypes="ccccc" />
    </g>
    <g
       id="g993">
      <path
         inkscape:connector-curvature="0"
         id="path983"
         d="m 99.592921,169.49999 12.990379,-7.5 2.59808,1.5 -12.99038,7.5 z"
         style="fill:#d5f6ff;fill-opacity:1;fill-rule:evenodd;stroke:none;stroke-width:0.26458332px;stroke-linecap:butt;stroke-linejoin:miter;stroke-opacity:1" />
      <path
         inkscape:connector-curvature="0"
         id="path989"
         d="m 116.0474,163.99999 -12.99038,7.5 0.86603,0.5 12.99038,-7.5 z"
         style="fill:#d5f6ff;fill-opacity:1;fill-rule:evenodd;stroke:none;stroke-width:0.26458332px;stroke-linecap:butt;stroke-linejoin:miter;stroke-opacity:1" />
    </g>
    <g
       id="g999"
       transform="translate(38.971142,22.500004)">
      <path
         style="fill:#d5f6ff;fill-opacity:1;fill-rule:evenodd;stroke:none;stroke-width:0.26458332px;stroke-linecap:butt;stroke-linejoin:miter;stroke-opacity:1"
         d="m 99.592921,169.49999 12.990379,-7.5 2.59808,1.5 -12.99038,7.5 z"
         inkscape:connector-curvature="0"
         id="path995" />
      <path
         style="fill:#d5f6ff;fill-opacity:1;fill-rule:evenodd;stroke:none;stroke-width:0.26458332px;stroke-linecap:butt;stroke-linejoin:miter;stroke-opacity:1"
         d="m 116.0474,163.99999 -12.99038,7.5 0.86603,0.5 12.99038,-7.5 z"
         inkscape:connector-curvature="0"
         id="path997" />
    </g>
  </g>
</svg>
