<?xml version="1.0" encoding="UTF-8" standalone="no"?>
<!-- Created with Inkscape (http://www.inkscape.org/) -->

<svg
   xmlns:dc="http://purl.org/dc/elements/1.1/"
   xmlns:cc="http://creativecommons.org/ns#"
   xmlns:rdf="http://www.w3.org/1999/02/22-rdf-syntax-ns#"
   xmlns:svg="http://www.w3.org/2000/svg"
   xmlns="http://www.w3.org/2000/svg"
   xmlns:sodipodi="http://sodipodi.sourceforge.net/DTD/sodipodi-0.dtd"
   xmlns:inkscape="http://www.inkscape.org/namespaces/inkscape"
   width="555"
   height="555"
   viewBox="0 0 146.84375 146.84375"
   version="1.1"
   id="svg6345"
   sodipodi:docname="no-consignment.svg"
   inkscape:version="0.92.2 5c3e80d, 2017-08-06">
  <defs
     id="defs6339" />
  <sodipodi:namedview
     id="base"
     pagecolor="#ffffff"
     bordercolor="#666666"
     borderopacity="1.0"
     inkscape:pageopacity="0.0"
     inkscape:pageshadow="2"
     inkscape:zoom="0.24748737"
     inkscape:cx="237.33622"
     inkscape:cy="98.700399"
     inkscape:document-units="mm"
     inkscape:current-layer="layer1"
     showgrid="true"
     units="px"
     inkscape:object-paths="false"
     inkscape:snap-smooth-nodes="true"
     showguides="true"
     inkscape:window-width="1280"
     inkscape:window-height="756"
     inkscape:window-x="0"
     inkscape:window-y="0"
     inkscape:window-maximized="1"
     inkscape:guide-bbox="true"
     fit-margin-top="0"
     fit-margin-left="0"
     fit-margin-right="0"
     fit-margin-bottom="0">
    <inkscape:grid
       type="xygrid"
       id="grid6890"
       enabled="false"
       originx="-271.85935"
       originy="-128.98439" />
  </sodipodi:namedview>
  <metadata
     id="metadata6342">
    <rdf:RDF>
      <cc:Work
         rdf:about="">
        <dc:format>image/svg+xml</dc:format>
        <dc:type
           rdf:resource="http://purl.org/dc/dcmitype/StillImage" />
        <dc:title></dc:title>
      </cc:Work>
    </rdf:RDF>
  </metadata>
  <g
     inkscape:label="Layer 1"
     inkscape:groupmode="layer"
     id="layer1"
     transform="translate(-90.619784,-107.16144)">
    <path
       inkscape:connector-curvature="0"
       id="path7071"
       d="m -80.697899,106.353 a 41.157404,41.157404 0 0 0 -41.157401,41.15741 41.157404,41.157404 0 0 0 41.157401,41.1574 41.157404,41.157404 0 0 0 41.15741,-41.1574 h -41.15741 z m 41.15741,41.15741 a 41.157404,41.157404 0 0 0 -0.17605,-3.51246 41.157404,41.157404 0 0 1 0.17605,3.51246 z m -37.64898,-40.98177 a 41.157404,41.157404 0 0 1 2.04018,0.24758 41.157404,41.157404 0 0 0 -2.04018,-0.24758 z m 4.07273,0.55466 a 41.157404,41.157404 0 0 1 2.00924,0.45096 41.157404,41.157404 0 0 0 -2.00924,-0.45096 z m 3.99999,0.9594 a 41.157404,41.157404 0 0 1 1.94654,0.6467 41.157404,41.157404 0 0 0 -1.94654,-0.6467 z m 3.88142,1.35289 a 41.157404,41.157404 0 0 1 1.87539,0.83923 41.157404,41.157404 0 0 0 -1.87539,-0.83923 z m 3.73069,1.73552 a 41.157404,41.157404 0 0 1 1.7713,1.01608 41.157404,41.157404 0 0 0 -1.7713,-1.01608 z m 3.53737,2.09887 a 41.157404,41.157404 0 0 1 1.66157,1.1885 41.157404,41.157404 0 0 0 -1.66157,-1.1885 z m 3.30585,2.4381 a 41.157404,41.157404 0 0 1 1.54421,1.3565 41.157404,41.157404 0 0 0 -1.54421,-1.3565 z m 3.04822,2.75762 a 41.157404,41.157404 0 0 1 1.40112,1.50401 41.157404,41.157404 0 0 0 -1.40112,-1.50401 z m 2.75763,3.04822 a 41.157404,41.157404 0 0 1 1.24959,1.64429 41.157404,41.157404 0 0 0 -1.24959,-1.64429 z m 2.43849,3.30666 a 41.157404,41.157404 0 0 1 1.07838,1.75884 41.157404,41.157404 0 0 0 -1.07838,-1.75884 z m 2.10008,3.54018 a 41.157404,41.157404 0 0 1 0.89348,1.84967 41.157404,41.157404 0 0 0 -0.89348,-1.84967 z m 1.73432,3.72788 a 41.157404,41.157404 0 0 1 0.70257,1.92524 41.157404,41.157404 0 0 0 -0.70257,-1.92524 z m 1.35369,3.88544 a 41.157404,41.157404 0 0 1 0.50603,1.9811 41.157404,41.157404 0 0 0 -0.50603,-1.9811 z m 0.95819,3.99516 a 41.157404,41.157404 0 0 1 0.30748,2.03657 41.157404,41.157404 0 0 0 -0.30748,-2.03657 z"
       style="opacity:1;fill:#f6511d;fill-opacity:1;stroke:none;stroke-width:9.26041698;stroke-linecap:round;stroke-linejoin:round;stroke-miterlimit:4;stroke-dasharray:none;stroke-opacity:1" />
    <g
       id="g7099"
       transform="translate(2.4988773,-2.4988233)"
       style="fill:#bf2e00;fill-opacity:1">
      <path
         inkscape:connector-curvature="0"
         id="circle7052"
         d="m 159.92591,143.54165 a 41.157404,41.157404 0 0 0 -41.1574,41.15741 41.157404,41.157404 0 0 0 41.1574,41.1574 41.157404,41.157404 0 0 0 41.15741,-41.1574 h -41.15741 z m 41.15741,41.15741 a 41.157404,41.157404 0 0 0 -0.17605,-3.51246 41.157404,41.157404 0 0 1 0.17605,3.51246 z m -37.64898,-40.98177 a 41.157404,41.157404 0 0 1 2.04018,0.24758 41.157404,41.157404 0 0 0 -2.04018,-0.24758 z m 4.07273,0.55466 a 41.157404,41.157404 0 0 1 2.00924,0.45096 41.157404,41.157404 0 0 0 -2.00924,-0.45096 z m 3.99999,0.9594 a 41.157404,41.157404 0 0 1 1.94654,0.6467 41.157404,41.157404 0 0 0 -1.94654,-0.6467 z m 3.88142,1.35289 a 41.157404,41.157404 0 0 1 1.87539,0.83923 41.157404,41.157404 0 0 0 -1.87539,-0.83923 z m 3.73069,1.73552 a 41.157404,41.157404 0 0 1 1.7713,1.01608 41.157404,41.157404 0 0 0 -1.7713,-1.01608 z m 3.53737,2.09887 a 41.157404,41.157404 0 0 1 1.66157,1.1885 41.157404,41.157404 0 0 0 -1.66157,-1.1885 z m 3.30585,2.4381 a 41.157404,41.157404 0 0 1 1.54421,1.3565 41.157404,41.157404 0 0 0 -1.54421,-1.3565 z m 3.04822,2.75762 a 41.157404,41.157404 0 0 1 1.40112,1.50401 41.157404,41.157404 0 0 0 -1.40112,-1.50401 z m 2.75763,3.04822 a 41.157404,41.157404 0 0 1 1.24959,1.64429 41.157404,41.157404 0 0 0 -1.24959,-1.64429 z m 2.43849,3.30666 a 41.157404,41.157404 0 0 1 1.07838,1.75884 41.157404,41.157404 0 0 0 -1.07838,-1.75884 z m 2.10008,3.54018 a 41.157404,41.157404 0 0 1 0.89348,1.84967 41.157404,41.157404 0 0 0 -0.89348,-1.84967 z m 1.73432,3.72788 a 41.157404,41.157404 0 0 1 0.70257,1.92524 41.157404,41.157404 0 0 0 -0.70257,-1.92524 z m 1.35369,3.88544 a 41.157404,41.157404 0 0 1 0.50603,1.9811 41.157404,41.157404 0 0 0 -0.50603,-1.9811 z m 0.95819,3.99516 a 41.157404,41.157404 0 0 1 0.30748,2.03657 41.157404,41.157404 0 0 0 -0.30748,-2.03657 z"
         style="opacity:1;fill:#bf2e00;fill-opacity:1;stroke:none;stroke-width:9.26041698;stroke-linecap:round;stroke-linejoin:round;stroke-miterlimit:4;stroke-dasharray:none;stroke-opacity:1" />
      <path
         inkscape:connector-curvature="0"
         id="circle7054"
         d="m 168.15739,135.31017 v 41.1574 h 41.15741 a 41.157404,41.157404 0 0 0 -41.15741,-41.1574 z"
         style="opacity:1;fill:#bf2e00;fill-opacity:1;stroke:none;stroke-width:9.26041698;stroke-linecap:round;stroke-linejoin:round;stroke-miterlimit:4;stroke-dasharray:none;stroke-opacity:1" />
    </g>
    <rect
       ry="0"
       y="174.89502"
       x="-20.957104"
       height="137.58333"
       width="18.520823"
       id="rect7091"
       style="opacity:1;fill:#ffffff;fill-opacity:1;stroke:none;stroke-width:6.61458397;stroke-linecap:round;stroke-linejoin:round;stroke-miterlimit:4;stroke-dasharray:none;stroke-opacity:1"
       transform="rotate(-45)" />
    <circle
       style="opacity:1;fill:none;fill-opacity:1;stroke:#f6511d;stroke-width:9.26041698;stroke-linecap:round;stroke-linejoin:round;stroke-miterlimit:4;stroke-dasharray:none;stroke-opacity:1"
       id="path6894"
       cx="164.04166"
       cy="180.58331"
       r="68.791664" />
    <rect
       style="opacity:1;fill:#f6511d;fill-opacity:1;stroke:none;stroke-width:6.61458254;stroke-linecap:round;stroke-linejoin:round;stroke-miterlimit:4;stroke-dasharray:none;stroke-opacity:1"
       id="rect6896"
       width="9.260417"
       height="137.58333"
       x="-16.326921"
       y="174.89499"
       ry="0"
       transform="rotate(-45)" />
    <circle
       style="opacity:1;fill:#f6511d;fill-opacity:1;stroke:none;stroke-width:9.26041698;stroke-linecap:round;stroke-linejoin:round;stroke-miterlimit:4;stroke-dasharray:none;stroke-opacity:1"
       cx="-170.65622"
       cy="139.57291"
       r="52.916664"
       id="path7031" />
    <circle
       id="circle7046"
       r="52.916664"
       cy="139.57291"
       cx="-170.65622"
       style="opacity:1;fill:#f6511d;fill-opacity:1;stroke:none;stroke-width:9.26041698;stroke-linecap:round;stroke-linejoin:round;stroke-miterlimit:4;stroke-dasharray:none;stroke-opacity:1" />
    <circle
       style="opacity:1;fill:#f6511d;fill-opacity:1;stroke:none;stroke-width:9.26041698;stroke-linecap:round;stroke-linejoin:round;stroke-miterlimit:4;stroke-dasharray:none;stroke-opacity:1"
       cx="-170.65622"
       cy="139.57291"
       r="52.916664"
       id="circle7048" />
    <circle
       id="circle7050"
       r="52.916664"
       cy="139.57291"
       cx="-170.65622"
       style="opacity:1;fill:#f6511d;fill-opacity:1;stroke:none;stroke-width:9.26041698;stroke-linecap:round;stroke-linejoin:round;stroke-miterlimit:4;stroke-dasharray:none;stroke-opacity:1" />
  </g>
</svg>
